solid 
   facet normal -1.000000e+000 0.000000e+000 -5.106822e-016
      outer loop
         vertex -1.010334e-015 2.500000e+001 -1.650000e+001
         vertex -1.010334e-015 -2.500000e+001 -1.650000e+001
         vertex -1.776357e-015 1.836970e-015 -1.500000e+001
      endloop
   endfacet
   facet normal -1.000000e+000 -0.000000e+000 -2.085532e-016
      outer loop
         vertex 1.010334e-015 -2.500000e+001 1.650000e+001
         vertex 1.010334e-015 2.500000e+001 1.650000e+001
         vertex 1.344316e-015 1.741394e+000 1.489858e+001
      endloop
   endfacet
   facet normal -1.000000e+000 -6.352185e-017 5.480154e-016
      outer loop
         vertex -1.335042e-015 -3.459238e+000 -1.459567e+001
         vertex -1.776357e-015 1.836970e-015 -1.500000e+001
         vertex -1.010334e-015 -2.500000e+001 -1.650000e+001
      endloop
   endfacet
   facet normal -1.000000e+000 6.734169e-017 5.912234e-016
      outer loop
         vertex -1.335042e-015 3.459238e+000 -1.459567e+001
         vertex -4.103941e-016 6.731987e+000 -1.340449e+001
         vertex -1.010334e-015 2.500000e+001 -1.650000e+001
      endloop
   endfacet
   facet normal -1.000000e+000 -2.515238e-017 5.434624e-017
      outer loop
         vertex -3.518002e-016 9.641814e+000 -1.149067e+001
         vertex -2.742406e-016 1.203185e+001 -8.957379e+000
         vertex -1.010334e-015 2.500000e+001 -1.650000e+001
      endloop
   endfacet
   facet normal -1.000000e+000 -3.511063e-017 4.112761e-017
      outer loop
         vertex -1.818967e-016 1.377324e+001 -5.941196e+000
         vertex -7.974663e-017 1.477212e+001 -2.604723e+000
         vertex -1.010334e-015 2.500000e+001 -1.650000e+001
      endloop
   endfacet
   facet normal -1.000000e+000 3.952487e-017 3.758547e-017
      outer loop
         vertex 2.670258e-017 1.497462e+001 8.721724e-001
         vertex 1.317122e-016 1.436984e+001 4.302049e+000
         vertex 1.010334e-015 2.500000e+001 1.650000e+001
      endloop
   endfacet
   facet normal -1.000000e+000 2.700001e-017 5.071694e-017
      outer loop
         vertex 2.296213e-016 1.299038e+001 7.500000e+000
         vertex 3.151514e-016 1.091060e+001 1.029362e+001
         vertex 1.010334e-015 2.500000e+001 1.650000e+001
      endloop
   endfacet
   facet normal -1.000000e+000 2.048721e-017 7.140955e-017
      outer loop
         vertex 3.836916e-016 8.242635e+000 1.253232e+001
         vertex 4.315468e-016 5.130302e+000 1.409539e+001
         vertex 1.010334e-015 2.500000e+001 1.650000e+001
      endloop
   endfacet
   facet normal -1.000000e+000 0.000000e+000 -2.085532e-016
      outer loop
         vertex 1.344316e-015 1.741394e+000 1.489858e+001
         vertex 1.344316e-015 -1.741394e+000 1.489858e+001
         vertex 1.010334e-015 -2.500000e+001 1.650000e+001
      endloop
   endfacet
   facet normal -1.000000e+000 -2.048721e-017 7.140955e-017
      outer loop
         vertex 4.315468e-016 -5.130302e+000 1.409539e+001
         vertex 3.836916e-016 -8.242635e+000 1.253232e+001
         vertex 1.010334e-015 -2.500000e+001 1.650000e+001
      endloop
   endfacet
   facet normal -1.000000e+000 -2.700001e-017 5.071694e-017
      outer loop
         vertex 3.151514e-016 -1.091060e+001 1.029362e+001
         vertex 2.296213e-016 -1.299038e+001 7.500000e+000
         vertex 1.010334e-015 -2.500000e+001 1.650000e+001
      endloop
   endfacet
   facet normal -1.000000e+000 -3.952487e-017 3.758547e-017
      outer loop
         vertex 1.317122e-016 -1.436984e+001 4.302049e+000
         vertex 2.670258e-017 -1.497462e+001 8.721724e-001
         vertex 1.010334e-015 -2.500000e+001 1.650000e+001
      endloop
   endfacet
   facet normal -1.000000e+000 3.511063e-017 4.112761e-017
      outer loop
         vertex -7.974663e-017 -1.477212e+001 -2.604723e+000
         vertex -1.818967e-016 -1.377324e+001 -5.941196e+000
         vertex -1.010334e-015 -2.500000e+001 -1.650000e+001
      endloop
   endfacet
   facet normal -1.000000e+000 2.515238e-017 5.434624e-017
      outer loop
         vertex -2.742406e-016 -1.203185e+001 -8.957379e+000
         vertex -3.518002e-016 -9.641814e+000 -1.149067e+001
         vertex -1.010334e-015 -2.500000e+001 -1.650000e+001
      endloop
   endfacet
   facet normal -1.000000e+000 -6.734169e-017 5.912234e-016
      outer loop
         vertex -4.103941e-016 -6.731987e+000 -1.340449e+001
         vertex -1.335042e-015 -3.459238e+000 -1.459567e+001
         vertex -1.010334e-015 -2.500000e+001 -1.650000e+001
      endloop
   endfacet
   facet normal -1.000000e+000 -7.175936e-017 8.336583e-016
      outer loop
         vertex 1.344316e-015 1.741394e+000 1.489858e+001
         vertex 1.010334e-015 2.500000e+001 1.650000e+001
         vertex 4.315468e-016 5.130302e+000 1.409539e+001
      endloop
   endfacet
   facet normal -1.000000e+000 -2.198814e-017 6.404752e-017
      outer loop
         vertex -3.518002e-016 9.641814e+000 -1.149067e+001
         vertex -1.010334e-015 2.500000e+001 -1.650000e+001
         vertex -4.103941e-016 6.731987e+000 -1.340449e+001
      endloop
   endfacet
   facet normal -1.000000e+000 2.663499e-018 6.123234e-017
      outer loop
         vertex 2.670258e-017 1.497462e+001 8.721724e-001
         vertex 1.010334e-015 2.500000e+001 1.650000e+001
         vertex -1.010334e-015 2.500000e+001 -1.650000e+001
      endloop
   endfacet
   facet normal -1.000000e+000 2.351159e-017 5.863619e-017
      outer loop
         vertex 1.010334e-015 2.500000e+001 1.650000e+001
         vertex 3.151514e-016 1.091060e+001 1.029362e+001
         vertex 3.836916e-016 8.242635e+000 1.253232e+001
      endloop
   endfacet
   facet normal -1.000000e+000 -2.351159e-017 5.863619e-017
      outer loop
         vertex 1.010334e-015 -2.500000e+001 1.650000e+001
         vertex 3.836916e-016 -8.242635e+000 1.253232e+001
         vertex 3.151514e-016 -1.091060e+001 1.029362e+001
      endloop
   endfacet
   facet normal -1.000000e+000 -2.663499e-018 6.123234e-017
      outer loop
         vertex 1.010334e-015 -2.500000e+001 1.650000e+001
         vertex 2.670258e-017 -1.497462e+001 8.721724e-001
         vertex -1.010334e-015 -2.500000e+001 -1.650000e+001
      endloop
   endfacet
   facet normal -1.000000e+000 2.916182e-017 4.745275e-017
      outer loop
         vertex -2.742406e-016 -1.203185e+001 -8.957379e+000
         vertex -1.010334e-015 -2.500000e+001 -1.650000e+001
         vertex -1.818967e-016 -1.377324e+001 -5.941196e+000
      endloop
   endfacet
   facet normal -1.000000e+000 4.576951e-017 3.328194e-017
      outer loop
         vertex -1.010334e-015 -2.500000e+001 -1.650000e+001
         vertex 2.670258e-017 -1.497462e+001 8.721724e-001
         vertex -7.974663e-017 -1.477212e+001 -2.604723e+000
      endloop
   endfacet
   facet normal -1.000000e+000 6.352185e-017 5.480154e-016
      outer loop
         vertex -1.776357e-015 1.836970e-015 -1.500000e+001
         vertex -1.335042e-015 3.459238e+000 -1.459567e+001
         vertex -1.010334e-015 2.500000e+001 -1.650000e+001
      endloop
   endfacet
   facet normal -1.000000e+000 -4.576951e-017 3.328194e-017
      outer loop
         vertex -7.974663e-017 1.477212e+001 -2.604723e+000
         vertex 2.670258e-017 1.497462e+001 8.721724e-001
         vertex -1.010334e-015 2.500000e+001 -1.650000e+001
      endloop
   endfacet
   facet normal -1.000000e+000 7.175936e-017 8.336583e-016
      outer loop
         vertex 1.344316e-015 -1.741394e+000 1.489858e+001
         vertex 4.315468e-016 -5.130302e+000 1.409539e+001
         vertex 1.010334e-015 -2.500000e+001 1.650000e+001
      endloop
   endfacet
   facet normal -1.000000e+000 2.198814e-017 6.404752e-017
      outer loop
         vertex -3.518002e-016 -9.641814e+000 -1.149067e+001
         vertex -4.103941e-016 -6.731987e+000 -1.340449e+001
         vertex -1.010334e-015 -2.500000e+001 -1.650000e+001
      endloop
   endfacet
   facet normal -1.000000e+000 -2.916182e-017 4.745275e-017
      outer loop
         vertex -1.818967e-016 1.377324e+001 -5.941196e+000
         vertex -1.010334e-015 2.500000e+001 -1.650000e+001
         vertex -2.742406e-016 1.203185e+001 -8.957379e+000
      endloop
   endfacet
   facet normal -1.000000e+000 -3.178781e-017 4.432809e-017
      outer loop
         vertex 1.317122e-016 -1.436984e+001 4.302049e+000
         vertex 1.010334e-015 -2.500000e+001 1.650000e+001
         vertex 2.296213e-016 -1.299038e+001 7.500000e+000
      endloop
   endfacet
   facet normal -1.000000e+000 3.178781e-017 4.432809e-017
      outer loop
         vertex 1.317122e-016 1.436984e+001 4.302049e+000
         vertex 2.296213e-016 1.299038e+001 7.500000e+000
         vertex 1.010334e-015 2.500000e+001 1.650000e+001
      endloop
   endfacet
   facet normal 1.421730e-017 -1.160930e-001 -9.932383e-001
      outer loop
         vertex -1.500000e+001 0.000000e+000 -1.500000e+001
         vertex -1.776357e-015 1.836970e-015 -1.500000e+001
         vertex -1.335042e-015 -3.459238e+000 -1.459567e+001
      endloop
   endfacet
   facet normal -0.000000e+000 -5.495090e-001 -8.354878e-001
      outer loop
         vertex -4.103941e-016 -6.731987e+000 -1.340449e+001
         vertex -3.518002e-016 -9.641814e+000 -1.149067e+001
         vertex -1.500000e+001 -9.641814e+000 -1.149067e+001
      endloop
   endfacet
   facet normal -0.000000e+000 -8.660254e-001 -5.000000e-001
      outer loop
         vertex -2.742406e-016 -1.203185e+001 -8.957379e+000
         vertex -1.818967e-016 -1.377324e+001 -5.941196e+000
         vertex -1.500000e+001 -1.377324e+001 -5.941196e+000
      endloop
   endfacet
   facet normal -0.000000e+000 -9.983082e-001 -5.814482e-002
      outer loop
         vertex -7.974663e-017 -1.477212e+001 -2.604723e+000
         vertex 2.670258e-017 -1.497462e+001 8.721724e-001
         vertex -1.500000e+001 -1.497462e+001 8.721724e-001
      endloop
   endfacet
   facet normal 0.000000e+000 -9.182161e-001 3.960797e-001
      outer loop
         vertex 1.317122e-016 -1.436984e+001 4.302049e+000
         vertex 2.296213e-016 -1.299038e+001 7.500000e+000
         vertex -1.500000e+001 -1.299038e+001 7.500000e+000
      endloop
   endfacet
   facet normal 0.000000e+000 -6.427876e-001 7.660445e-001
      outer loop
         vertex 3.151514e-016 -1.091060e+001 1.029362e+001
         vertex 3.836916e-016 -8.242635e+000 1.253232e+001
         vertex -1.500000e+001 -8.242635e+000 1.253232e+001
      endloop
   endfacet
   facet normal 0.000000e+000 -2.306160e-001 9.730448e-001
      outer loop
         vertex 4.315468e-016 -5.130302e+000 1.409539e+001
         vertex 1.344316e-015 -1.741394e+000 1.489858e+001
         vertex -1.500000e+001 -1.741394e+000 1.489858e+001
      endloop
   endfacet
   facet normal 0.000000e+000 2.306160e-001 9.730448e-001
      outer loop
         vertex 1.344316e-015 1.741394e+000 1.489858e+001
         vertex 4.315468e-016 5.130302e+000 1.409539e+001
         vertex -1.500000e+001 5.130302e+000 1.409539e+001
      endloop
   endfacet
   facet normal 0.000000e+000 6.427876e-001 7.660445e-001
      outer loop
         vertex 3.836916e-016 8.242635e+000 1.253232e+001
         vertex 3.151514e-016 1.091060e+001 1.029362e+001
         vertex -1.500000e+001 1.091060e+001 1.029362e+001
      endloop
   endfacet
   facet normal 0.000000e+000 9.182161e-001 3.960797e-001
      outer loop
         vertex 2.296213e-016 1.299038e+001 7.500000e+000
         vertex 1.317122e-016 1.436984e+001 4.302049e+000
         vertex -1.500000e+001 1.436984e+001 4.302049e+000
      endloop
   endfacet
   facet normal 0.000000e+000 9.983082e-001 -5.814482e-002
      outer loop
         vertex 2.670258e-017 1.497462e+001 8.721724e-001
         vertex -7.974663e-017 1.477212e+001 -2.604723e+000
         vertex -1.500000e+001 1.477212e+001 -2.604723e+000
      endloop
   endfacet
   facet normal 0.000000e+000 8.660254e-001 -5.000000e-001
      outer loop
         vertex -1.818967e-016 1.377324e+001 -5.941196e+000
         vertex -2.742406e-016 1.203185e+001 -8.957379e+000
         vertex -1.500000e+001 1.203185e+001 -8.957379e+000
      endloop
   endfacet
   facet normal 0.000000e+000 5.495090e-001 -8.354878e-001
      outer loop
         vertex -3.518002e-016 9.641814e+000 -1.149067e+001
         vertex -4.103941e-016 6.731987e+000 -1.340449e+001
         vertex -1.500000e+001 6.731987e+000 -1.340449e+001
      endloop
   endfacet
   facet normal -1.421730e-017 1.160930e-001 -9.932383e-001
      outer loop
         vertex -1.335042e-015 3.459238e+000 -1.459567e+001
         vertex -1.776357e-015 1.836970e-015 -1.500000e+001
         vertex -1.500000e+001 0.000000e+000 -1.500000e+001
      endloop
   endfacet
   facet normal 0.000000e+000 3.420201e-001 -9.396926e-001
      outer loop
         vertex -1.500000e+001 3.459238e+000 -1.459567e+001
         vertex -1.500000e+001 6.731987e+000 -1.340449e+001
         vertex -4.103941e-016 6.731987e+000 -1.340449e+001
      endloop
   endfacet
   facet normal 0.000000e+000 7.273735e-001 -6.862417e-001
      outer loop
         vertex -1.500000e+001 9.641814e+000 -1.149067e+001
         vertex -1.500000e+001 1.203185e+001 -8.957379e+000
         vertex -2.742406e-016 1.203185e+001 -8.957379e+000
      endloop
   endfacet
   facet normal 0.000000e+000 9.579895e-001 -2.868032e-001
      outer loop
         vertex -1.500000e+001 1.377324e+001 -5.941196e+000
         vertex -1.500000e+001 1.477212e+001 -2.604723e+000
         vertex -7.974663e-017 1.477212e+001 -2.604723e+000
      endloop
   endfacet
   facet normal -0.000000e+000 9.848077e-001 1.736483e-001
      outer loop
         vertex -1.500000e+001 1.497462e+001 8.721724e-001
         vertex -1.500000e+001 1.436984e+001 4.302049e+000
         vertex 1.317122e-016 1.436984e+001 4.302049e+000
      endloop
   endfacet
   facet normal -0.000000e+000 8.021232e-001 5.971586e-001
      outer loop
         vertex -1.500000e+001 1.299038e+001 7.500000e+000
         vertex -1.500000e+001 1.091060e+001 1.029362e+001
         vertex 3.151514e-016 1.091060e+001 1.029362e+001
      endloop
   endfacet
   facet normal -0.000000e+000 4.487992e-001 8.936327e-001
      outer loop
         vertex -1.500000e+001 8.242635e+000 1.253232e+001
         vertex -1.500000e+001 5.130302e+000 1.409539e+001
         vertex 4.315468e-016 5.130302e+000 1.409539e+001
      endloop
   endfacet
   facet normal 0.000000e+000 0.000000e+000 1.000000e+000
      outer loop
         vertex -1.500000e+001 1.741394e+000 1.489858e+001
         vertex -1.500000e+001 -1.741394e+000 1.489858e+001
         vertex 1.344316e-015 -1.741394e+000 1.489858e+001
      endloop
   endfacet
   facet normal 0.000000e+000 -4.487992e-001 8.936327e-001
      outer loop
         vertex -1.500000e+001 -5.130302e+000 1.409539e+001
         vertex -1.500000e+001 -8.242635e+000 1.253232e+001
         vertex 3.836916e-016 -8.242635e+000 1.253232e+001
      endloop
   endfacet
   facet normal 0.000000e+000 -8.021232e-001 5.971586e-001
      outer loop
         vertex -1.500000e+001 -1.091060e+001 1.029362e+001
         vertex -1.500000e+001 -1.299038e+001 7.500000e+000
         vertex 2.296213e-016 -1.299038e+001 7.500000e+000
      endloop
   endfacet
   facet normal 0.000000e+000 -9.848077e-001 1.736483e-001
      outer loop
         vertex -1.500000e+001 -1.436984e+001 4.302049e+000
         vertex -1.500000e+001 -1.497462e+001 8.721724e-001
         vertex 2.670258e-017 -1.497462e+001 8.721724e-001
      endloop
   endfacet
   facet normal 0.000000e+000 -9.579895e-001 -2.868032e-001
      outer loop
         vertex -1.500000e+001 -1.477212e+001 -2.604723e+000
         vertex -1.500000e+001 -1.377324e+001 -5.941196e+000
         vertex -1.818967e-016 -1.377324e+001 -5.941196e+000
      endloop
   endfacet
   facet normal 0.000000e+000 -7.273735e-001 -6.862417e-001
      outer loop
         vertex -1.500000e+001 -1.203185e+001 -8.957379e+000
         vertex -1.500000e+001 -9.641814e+000 -1.149067e+001
         vertex -3.518002e-016 -9.641814e+000 -1.149067e+001
      endloop
   endfacet
   facet normal 0.000000e+000 -3.420201e-001 -9.396926e-001
      outer loop
         vertex -1.500000e+001 -6.731987e+000 -1.340449e+001
         vertex -1.500000e+001 -3.459238e+000 -1.459567e+001
         vertex -1.335042e-015 -3.459238e+000 -1.459567e+001
      endloop
   endfacet
   facet normal -0.000000e+000 -1.160930e-001 -9.932383e-001
      outer loop
         vertex -1.500000e+001 0.000000e+000 -1.500000e+001
         vertex -1.335042e-015 -3.459238e+000 -1.459567e+001
         vertex -1.500000e+001 -3.459238e+000 -1.459567e+001
      endloop
   endfacet
   facet normal 0.000000e+000 -9.983082e-001 -5.814482e-002
      outer loop
         vertex -7.974663e-017 -1.477212e+001 -2.604723e+000
         vertex -1.500000e+001 -1.497462e+001 8.721724e-001
         vertex -1.500000e+001 -1.477212e+001 -2.604723e+000
      endloop
   endfacet
   facet normal 0.000000e+000 -2.306160e-001 9.730448e-001
      outer loop
         vertex 4.315468e-016 -5.130302e+000 1.409539e+001
         vertex -1.500000e+001 -1.741394e+000 1.489858e+001
         vertex -1.500000e+001 -5.130302e+000 1.409539e+001
      endloop
   endfacet
   facet normal 0.000000e+000 9.182161e-001 3.960797e-001
      outer loop
         vertex 2.296213e-016 1.299038e+001 7.500000e+000
         vertex -1.500000e+001 1.436984e+001 4.302049e+000
         vertex -1.500000e+001 1.299038e+001 7.500000e+000
      endloop
   endfacet
   facet normal 0.000000e+000 5.495090e-001 -8.354878e-001
      outer loop
         vertex -3.518002e-016 9.641814e+000 -1.149067e+001
         vertex -1.500000e+001 6.731987e+000 -1.340449e+001
         vertex -1.500000e+001 9.641814e+000 -1.149067e+001
      endloop
   endfacet
   facet normal 0.000000e+000 7.273735e-001 -6.862417e-001
      outer loop
         vertex -1.500000e+001 9.641814e+000 -1.149067e+001
         vertex -2.742406e-016 1.203185e+001 -8.957379e+000
         vertex -3.518002e-016 9.641814e+000 -1.149067e+001
      endloop
   endfacet
   facet normal 0.000000e+000 8.021232e-001 5.971586e-001
      outer loop
         vertex -1.500000e+001 1.299038e+001 7.500000e+000
         vertex 3.151514e-016 1.091060e+001 1.029362e+001
         vertex 2.296213e-016 1.299038e+001 7.500000e+000
      endloop
   endfacet
   facet normal 0.000000e+000 -4.487992e-001 8.936327e-001
      outer loop
         vertex -1.500000e+001 -5.130302e+000 1.409539e+001
         vertex 3.836916e-016 -8.242635e+000 1.253232e+001
         vertex 4.315468e-016 -5.130302e+000 1.409539e+001
      endloop
   endfacet
   facet normal 0.000000e+000 -9.579895e-001 -2.868032e-001
      outer loop
         vertex -1.500000e+001 -1.477212e+001 -2.604723e+000
         vertex -1.818967e-016 -1.377324e+001 -5.941196e+000
         vertex -7.974663e-017 -1.477212e+001 -2.604723e+000
      endloop
   endfacet
   facet normal -0.000000e+000 -3.420201e-001 -9.396926e-001
      outer loop
         vertex -1.335042e-015 -3.459238e+000 -1.459567e+001
         vertex -4.103941e-016 -6.731987e+000 -1.340449e+001
         vertex -1.500000e+001 -6.731987e+000 -1.340449e+001
      endloop
   endfacet
   facet normal 0.000000e+000 -9.848077e-001 1.736483e-001
      outer loop
         vertex 2.670258e-017 -1.497462e+001 8.721724e-001
         vertex 1.317122e-016 -1.436984e+001 4.302049e+000
         vertex -1.500000e+001 -1.436984e+001 4.302049e+000
      endloop
   endfacet
   facet normal 0.000000e+000 0.000000e+000 1.000000e+000
      outer loop
         vertex 1.344316e-015 -1.741394e+000 1.489858e+001
         vertex 1.344316e-015 1.741394e+000 1.489858e+001
         vertex -1.500000e+001 1.741394e+000 1.489858e+001
      endloop
   endfacet
   facet normal 0.000000e+000 9.848077e-001 1.736483e-001
      outer loop
         vertex 1.317122e-016 1.436984e+001 4.302049e+000
         vertex 2.670258e-017 1.497462e+001 8.721724e-001
         vertex -1.500000e+001 1.497462e+001 8.721724e-001
      endloop
   endfacet
   facet normal 0.000000e+000 3.420201e-001 -9.396926e-001
      outer loop
         vertex -4.103941e-016 6.731987e+000 -1.340449e+001
         vertex -1.335042e-015 3.459238e+000 -1.459567e+001
         vertex -1.500000e+001 3.459238e+000 -1.459567e+001
      endloop
   endfacet
   facet normal 0.000000e+000 8.660254e-001 -5.000000e-001
      outer loop
         vertex -1.500000e+001 1.203185e+001 -8.957379e+000
         vertex -1.500000e+001 1.377324e+001 -5.941196e+000
         vertex -1.818967e-016 1.377324e+001 -5.941196e+000
      endloop
   endfacet
   facet normal -0.000000e+000 6.427876e-001 7.660445e-001
      outer loop
         vertex -1.500000e+001 1.091060e+001 1.029362e+001
         vertex -1.500000e+001 8.242635e+000 1.253232e+001
         vertex 3.836916e-016 8.242635e+000 1.253232e+001
      endloop
   endfacet
   facet normal 0.000000e+000 -6.427876e-001 7.660445e-001
      outer loop
         vertex -1.500000e+001 -8.242635e+000 1.253232e+001
         vertex -1.500000e+001 -1.091060e+001 1.029362e+001
         vertex 3.151514e-016 -1.091060e+001 1.029362e+001
      endloop
   endfacet
   facet normal 0.000000e+000 -8.660254e-001 -5.000000e-001
      outer loop
         vertex -1.500000e+001 -1.377324e+001 -5.941196e+000
         vertex -1.500000e+001 -1.203185e+001 -8.957379e+000
         vertex -2.742406e-016 -1.203185e+001 -8.957379e+000
      endloop
   endfacet
   facet normal 0.000000e+000 -5.495090e-001 -8.354878e-001
      outer loop
         vertex -4.103941e-016 -6.731987e+000 -1.340449e+001
         vertex -1.500000e+001 -9.641814e+000 -1.149067e+001
         vertex -1.500000e+001 -6.731987e+000 -1.340449e+001
      endloop
   endfacet
   facet normal 0.000000e+000 9.983082e-001 -5.814482e-002
      outer loop
         vertex 2.670258e-017 1.497462e+001 8.721724e-001
         vertex -1.500000e+001 1.477212e+001 -2.604723e+000
         vertex -1.500000e+001 1.497462e+001 8.721724e-001
      endloop
   endfacet
   facet normal 0.000000e+000 4.487992e-001 8.936327e-001
      outer loop
         vertex -1.500000e+001 8.242635e+000 1.253232e+001
         vertex 4.315468e-016 5.130302e+000 1.409539e+001
         vertex 3.836916e-016 8.242635e+000 1.253232e+001
      endloop
   endfacet
   facet normal 0.000000e+000 -9.182161e-001 3.960797e-001
      outer loop
         vertex -1.500000e+001 -1.436984e+001 4.302049e+000
         vertex 1.317122e-016 -1.436984e+001 4.302049e+000
         vertex -1.500000e+001 -1.299038e+001 7.500000e+000
      endloop
   endfacet
   facet normal 0.000000e+000 -8.021232e-001 5.971586e-001
      outer loop
         vertex 3.151514e-016 -1.091060e+001 1.029362e+001
         vertex -1.500000e+001 -1.091060e+001 1.029362e+001
         vertex 2.296213e-016 -1.299038e+001 7.500000e+000
      endloop
   endfacet
   facet normal -0.000000e+000 -7.273735e-001 -6.862417e-001
      outer loop
         vertex -3.518002e-016 -9.641814e+000 -1.149067e+001
         vertex -2.742406e-016 -1.203185e+001 -8.957379e+000
         vertex -1.500000e+001 -1.203185e+001 -8.957379e+000
      endloop
   endfacet
   facet normal 0.000000e+000 1.160930e-001 -9.932383e-001
      outer loop
         vertex -1.500000e+001 0.000000e+000 -1.500000e+001
         vertex -1.500000e+001 3.459238e+000 -1.459567e+001
         vertex -1.335042e-015 3.459238e+000 -1.459567e+001
      endloop
   endfacet
   facet normal 0.000000e+000 2.306160e-001 9.730448e-001
      outer loop
         vertex 1.344316e-015 1.741394e+000 1.489858e+001
         vertex -1.500000e+001 5.130302e+000 1.409539e+001
         vertex -1.500000e+001 1.741394e+000 1.489858e+001
      endloop
   endfacet
   facet normal 0.000000e+000 9.579895e-001 -2.868032e-001
      outer loop
         vertex -7.974663e-017 1.477212e+001 -2.604723e+000
         vertex -1.818967e-016 1.377324e+001 -5.941196e+000
         vertex -1.500000e+001 1.377324e+001 -5.941196e+000
      endloop
   endfacet
   facet normal 0.000000e+000 -1.000000e+000 -0.000000e+000
      outer loop
         vertex 4.600000e+001 -2.500000e+001 1.650000e+001
         vertex 1.010334e-015 -2.500000e+001 1.650000e+001
         vertex -1.010334e-015 -2.500000e+001 -1.650000e+001
      endloop
   endfacet
   facet normal 0.000000e+000 -1.000000e+000 0.000000e+000
      outer loop
         vertex 1.030000e+002 -2.500000e+001 5.051613e+001
         vertex 1.550000e+002 -2.500000e+001 3.500000e+001
         vertex 1.030000e+002 -2.500000e+001 7.796774e+001
      endloop
   endfacet
   facet normal 0.000000e+000 -1.000000e+000 0.000000e+000
      outer loop
         vertex -1.010334e-015 -2.500000e+001 -1.650000e+001
         vertex 4.600000e+001 -2.500000e+001 -1.650000e+001
         vertex 4.600000e+001 -2.500000e+001 1.650000e+001
      endloop
   endfacet
   facet normal 0.000000e+000 -1.000000e+000 0.000000e+000
      outer loop
         vertex 1.030000e+002 -2.500000e+001 -8.129032e+001
         vertex 1.550000e+002 -2.500000e+001 -3.600000e+001
         vertex 1.030000e+002 -2.500000e+001 -5.235484e+001
      endloop
   endfacet
   facet normal 0.000000e+000 -1.000000e+000 0.000000e+000
      outer loop
         vertex 1.030000e+002 -2.500000e+001 7.796774e+001
         vertex 1.010334e-015 -2.500000e+001 1.650000e+001
         vertex 4.600000e+001 -2.500000e+001 1.650000e+001
      endloop
   endfacet
   facet normal 0.000000e+000 -1.000000e+000 0.000000e+000
      outer loop
         vertex 4.600000e+001 -2.500000e+001 -1.650000e+001
         vertex 1.030000e+002 -2.500000e+001 -8.129032e+001
         vertex 1.030000e+002 -2.500000e+001 -5.235484e+001
      endloop
   endfacet
   facet normal 0.000000e+000 -1.000000e+000 0.000000e+000
      outer loop
         vertex 1.030000e+002 -2.500000e+001 7.796774e+001
         vertex 4.600000e+001 -2.500000e+001 1.650000e+001
         vertex 1.030000e+002 -2.500000e+001 5.051613e+001
      endloop
   endfacet
   facet normal -0.000000e+000 -1.000000e+000 -0.000000e+000
      outer loop
         vertex 1.030000e+002 -2.500000e+001 -8.129032e+001
         vertex 4.600000e+001 -2.500000e+001 -1.650000e+001
         vertex -1.010334e-015 -2.500000e+001 -1.650000e+001
      endloop
   endfacet
   facet normal -5.124575e-001 0.000000e+000 8.587126e-001
      outer loop
         vertex 1.010334e-015 2.500000e+001 1.650000e+001
         vertex 1.010334e-015 -2.500000e+001 1.650000e+001
         vertex 1.030000e+002 -2.500000e+001 7.796774e+001
      endloop
   endfacet
   facet normal -5.124575e-001 0.000000e+000 8.587126e-001
      outer loop
         vertex 1.030000e+002 2.500000e+001 7.796774e+001
         vertex 1.010334e-015 2.500000e+001 1.650000e+001
         vertex 1.030000e+002 -2.500000e+001 7.796774e+001
      endloop
   endfacet
   facet normal -0.000000e+000 1.000000e+000 0.000000e+000
      outer loop
         vertex 1.030000e+002 2.500000e+001 -8.129032e+001
         vertex -1.010334e-015 2.500000e+001 -1.650000e+001
         vertex 4.600000e+001 2.500000e+001 -1.650000e+001
      endloop
   endfacet
   facet normal 0.000000e+000 1.000000e+000 0.000000e+000
      outer loop
         vertex 1.010334e-015 2.500000e+001 1.650000e+001
         vertex 1.030000e+002 2.500000e+001 7.796774e+001
         vertex 4.600000e+001 2.500000e+001 1.650000e+001
      endloop
   endfacet
   facet normal -0.000000e+000 1.000000e+000 0.000000e+000
      outer loop
         vertex 1.550000e+002 2.500000e+001 3.500000e+001
         vertex 1.030000e+002 2.500000e+001 5.051613e+001
         vertex 1.030000e+002 2.500000e+001 7.796774e+001
      endloop
   endfacet
   facet normal 0.000000e+000 1.000000e+000 0.000000e+000
      outer loop
         vertex 4.600000e+001 2.500000e+001 -1.650000e+001
         vertex 1.030000e+002 2.500000e+001 -5.235484e+001
         vertex 1.030000e+002 2.500000e+001 -8.129032e+001
      endloop
   endfacet
   facet normal 0.000000e+000 1.000000e+000 0.000000e+000
      outer loop
         vertex 1.550000e+002 2.500000e+001 -3.600000e+001
         vertex 1.030000e+002 2.500000e+001 -8.129032e+001
         vertex 1.030000e+002 2.500000e+001 -5.235484e+001
      endloop
   endfacet
   facet normal 0.000000e+000 1.000000e+000 0.000000e+000
      outer loop
         vertex 4.600000e+001 2.500000e+001 1.650000e+001
         vertex 1.030000e+002 2.500000e+001 7.796774e+001
         vertex 1.030000e+002 2.500000e+001 5.051613e+001
      endloop
   endfacet
   facet normal -0.000000e+000 1.000000e+000 0.000000e+000
      outer loop
         vertex -1.010334e-015 2.500000e+001 -1.650000e+001
         vertex 1.010334e-015 2.500000e+001 1.650000e+001
         vertex 4.600000e+001 2.500000e+001 1.650000e+001
      endloop
   endfacet
   facet normal 0.000000e+000 1.000000e+000 0.000000e+000
      outer loop
         vertex 4.600000e+001 2.500000e+001 -1.650000e+001
         vertex -1.010334e-015 2.500000e+001 -1.650000e+001
         vertex 4.600000e+001 2.500000e+001 1.650000e+001
      endloop
   endfacet
   facet normal -5.324511e-001 0.000000e+000 -8.464608e-001
      outer loop
         vertex 1.030000e+002 2.500000e+001 -8.129032e+001
         vertex 1.030000e+002 -2.500000e+001 -8.129032e+001
         vertex -1.010334e-015 -2.500000e+001 -1.650000e+001
      endloop
   endfacet
   facet normal -5.324511e-001 0.000000e+000 -8.464608e-001
      outer loop
         vertex -1.010334e-015 2.500000e+001 -1.650000e+001
         vertex 1.030000e+002 2.500000e+001 -8.129032e+001
         vertex -1.010334e-015 -2.500000e+001 -1.650000e+001
      endloop
   endfacet
   facet normal -1.000000e+000 0.000000e+000 0.000000e+000
      outer loop
         vertex -1.500000e+001 3.459238e+000 -1.459567e+001
         vertex -1.500000e+001 0.000000e+000 -1.500000e+001
         vertex -1.500000e+001 6.731987e+000 -1.340449e+001
      endloop
   endfacet
   facet normal -1.000000e+000 0.000000e+000 0.000000e+000
      outer loop
         vertex -1.500000e+001 -3.459238e+000 -1.459567e+001
         vertex -1.500000e+001 -6.731987e+000 -1.340449e+001
         vertex -1.500000e+001 -9.641814e+000 -1.149067e+001
      endloop
   endfacet
   facet normal -1.000000e+000 0.000000e+000 0.000000e+000
      outer loop
         vertex -1.500000e+001 -1.203185e+001 -8.957379e+000
         vertex -1.500000e+001 -1.377324e+001 -5.941196e+000
         vertex -1.500000e+001 -9.641814e+000 -1.149067e+001
      endloop
   endfacet
   facet normal -1.000000e+000 0.000000e+000 -0.000000e+000
      outer loop
         vertex -1.500000e+001 -1.497462e+001 8.721724e-001
         vertex -1.500000e+001 -1.436984e+001 4.302049e+000
         vertex -1.500000e+001 -1.299038e+001 7.500000e+000
      endloop
   endfacet
   facet normal -1.000000e+000 0.000000e+000 0.000000e+000
      outer loop
         vertex -1.500000e+001 -1.091060e+001 1.029362e+001
         vertex -1.500000e+001 -8.242635e+000 1.253232e+001
         vertex -1.500000e+001 -1.299038e+001 7.500000e+000
      endloop
   endfacet
   facet normal -1.000000e+000 -0.000000e+000 0.000000e+000
      outer loop
         vertex -1.500000e+001 -1.741394e+000 1.489858e+001
         vertex -1.500000e+001 1.741394e+000 1.489858e+001
         vertex -1.500000e+001 -5.130302e+000 1.409539e+001
      endloop
   endfacet
   facet normal -1.000000e+000 0.000000e+000 0.000000e+000
      outer loop
         vertex -1.500000e+001 8.242635e+000 1.253232e+001
         vertex -1.500000e+001 1.091060e+001 1.029362e+001
         vertex -1.500000e+001 5.130302e+000 1.409539e+001
      endloop
   endfacet
   facet normal -1.000000e+000 -0.000000e+000 0.000000e+000
      outer loop
         vertex -1.500000e+001 1.436984e+001 4.302049e+000
         vertex -1.500000e+001 1.497462e+001 8.721724e-001
         vertex -1.500000e+001 1.477212e+001 -2.604723e+000
      endloop
   endfacet
   facet normal -1.000000e+000 0.000000e+000 0.000000e+000
      outer loop
         vertex -1.500000e+001 1.377324e+001 -5.941196e+000
         vertex -1.500000e+001 1.203185e+001 -8.957379e+000
         vertex -1.500000e+001 1.477212e+001 -2.604723e+000
      endloop
   endfacet
   facet normal -1.000000e+000 0.000000e+000 0.000000e+000
      outer loop
         vertex -1.500000e+001 6.731987e+000 -1.340449e+001
         vertex -1.500000e+001 0.000000e+000 -1.500000e+001
         vertex -1.500000e+001 1.203185e+001 -8.957379e+000
      endloop
   endfacet
   facet normal -1.000000e+000 0.000000e+000 0.000000e+000
      outer loop
         vertex -1.500000e+001 -9.641814e+000 -1.149067e+001
         vertex -1.500000e+001 -1.377324e+001 -5.941196e+000
         vertex -1.500000e+001 -1.497462e+001 8.721724e-001
      endloop
   endfacet
   facet normal -1.000000e+000 0.000000e+000 -0.000000e+000
      outer loop
         vertex -1.500000e+001 -1.299038e+001 7.500000e+000
         vertex -1.500000e+001 -8.242635e+000 1.253232e+001
         vertex -1.500000e+001 -5.130302e+000 1.409539e+001
      endloop
   endfacet
   facet normal -1.000000e+000 0.000000e+000 0.000000e+000
      outer loop
         vertex -1.500000e+001 1.436984e+001 4.302049e+000
         vertex -1.500000e+001 1.477212e+001 -2.604723e+000
         vertex -1.500000e+001 1.091060e+001 1.029362e+001
      endloop
   endfacet
   facet normal -1.000000e+000 0.000000e+000 0.000000e+000
      outer loop
         vertex -1.500000e+001 6.731987e+000 -1.340449e+001
         vertex -1.500000e+001 1.203185e+001 -8.957379e+000
         vertex -1.500000e+001 9.641814e+000 -1.149067e+001
      endloop
   endfacet
   facet normal -1.000000e+000 0.000000e+000 -0.000000e+000
      outer loop
         vertex -1.500000e+001 -1.299038e+001 7.500000e+000
         vertex -1.500000e+001 -5.130302e+000 1.409539e+001
         vertex -1.500000e+001 1.477212e+001 -2.604723e+000
      endloop
   endfacet
   facet normal -1.000000e+000 0.000000e+000 0.000000e+000
      outer loop
         vertex -1.500000e+001 1.091060e+001 1.029362e+001
         vertex -1.500000e+001 1.477212e+001 -2.604723e+000
         vertex -1.500000e+001 5.130302e+000 1.409539e+001
      endloop
   endfacet
   facet normal -1.000000e+000 0.000000e+000 0.000000e+000
      outer loop
         vertex -1.500000e+001 5.130302e+000 1.409539e+001
         vertex -1.500000e+001 1.477212e+001 -2.604723e+000
         vertex -1.500000e+001 -5.130302e+000 1.409539e+001
      endloop
   endfacet
   facet normal -1.000000e+000 0.000000e+000 0.000000e+000
      outer loop
         vertex -1.500000e+001 0.000000e+000 -1.500000e+001
         vertex -1.500000e+001 -3.459238e+000 -1.459567e+001
         vertex -1.500000e+001 -9.641814e+000 -1.149067e+001
      endloop
   endfacet
   facet normal -1.000000e+000 0.000000e+000 0.000000e+000
      outer loop
         vertex -1.500000e+001 -1.477212e+001 -2.604723e+000
         vertex -1.500000e+001 -1.497462e+001 8.721724e-001
         vertex -1.500000e+001 -1.377324e+001 -5.941196e+000
      endloop
   endfacet
   facet normal -1.000000e+000 0.000000e+000 0.000000e+000
      outer loop
         vertex -1.500000e+001 1.299038e+001 7.500000e+000
         vertex -1.500000e+001 1.436984e+001 4.302049e+000
         vertex -1.500000e+001 1.091060e+001 1.029362e+001
      endloop
   endfacet
   facet normal -1.000000e+000 -0.000000e+000 0.000000e+000
      outer loop
         vertex -1.500000e+001 1.477212e+001 -2.604723e+000
         vertex -1.500000e+001 1.203185e+001 -8.957379e+000
         vertex -1.500000e+001 -9.641814e+000 -1.149067e+001
      endloop
   endfacet
   facet normal -1.000000e+000 0.000000e+000 0.000000e+000
      outer loop
         vertex -1.500000e+001 -9.641814e+000 -1.149067e+001
         vertex -1.500000e+001 -1.497462e+001 8.721724e-001
         vertex -1.500000e+001 -1.299038e+001 7.500000e+000
      endloop
   endfacet
   facet normal -1.000000e+000 0.000000e+000 0.000000e+000
      outer loop
         vertex -1.500000e+001 0.000000e+000 -1.500000e+001
         vertex -1.500000e+001 -9.641814e+000 -1.149067e+001
         vertex -1.500000e+001 1.203185e+001 -8.957379e+000
      endloop
   endfacet
   facet normal -1.000000e+000 0.000000e+000 0.000000e+000
      outer loop
         vertex -1.500000e+001 1.741394e+000 1.489858e+001
         vertex -1.500000e+001 5.130302e+000 1.409539e+001
         vertex -1.500000e+001 -5.130302e+000 1.409539e+001
      endloop
   endfacet
   facet normal -1.000000e+000 0.000000e+000 0.000000e+000
      outer loop
         vertex -1.500000e+001 1.477212e+001 -2.604723e+000
         vertex -1.500000e+001 -9.641814e+000 -1.149067e+001
         vertex -1.500000e+001 -1.299038e+001 7.500000e+000
      endloop
   endfacet
   facet normal 6.567807e-001 0.000000e+000 -7.540816e-001
      outer loop
         vertex 1.550000e+002 2.500000e+001 -3.600000e+001
         vertex 1.550000e+002 -2.500000e+001 -3.600000e+001
         vertex 1.030000e+002 -2.500000e+001 -8.129032e+001
      endloop
   endfacet
   facet normal 6.567807e-001 0.000000e+000 -7.540816e-001
      outer loop
         vertex 1.030000e+002 2.500000e+001 -8.129032e+001
         vertex 1.550000e+002 2.500000e+001 -3.600000e+001
         vertex 1.030000e+002 -2.500000e+001 -8.129032e+001
      endloop
   endfacet
   facet normal -3.000266e-001 0.000000e+000 9.539308e-001
      outer loop
         vertex 1.030000e+002 2.500000e+001 -5.235484e+001
         vertex 1.030000e+002 -2.500000e+001 -5.235484e+001
         vertex 1.550000e+002 -2.500000e+001 -3.600000e+001
      endloop
   endfacet
   facet normal -3.000266e-001 0.000000e+000 9.539308e-001
      outer loop
         vertex 1.550000e+002 2.500000e+001 -3.600000e+001
         vertex 1.030000e+002 2.500000e+001 -5.235484e+001
         vertex 1.550000e+002 -2.500000e+001 -3.600000e+001
      endloop
   endfacet
   facet normal 5.324511e-001 -0.000000e+000 8.464607e-001
      outer loop
         vertex 4.600000e+001 2.500000e+001 -1.650000e+001
         vertex 4.600000e+001 -2.500000e+001 -1.650000e+001
         vertex 1.030000e+002 -2.500000e+001 -5.235484e+001
      endloop
   endfacet
   facet normal 5.324511e-001 0.000000e+000 8.464607e-001
      outer loop
         vertex 1.030000e+002 2.500000e+001 -5.235484e+001
         vertex 4.600000e+001 2.500000e+001 -1.650000e+001
         vertex 1.030000e+002 -2.500000e+001 -5.235484e+001
      endloop
   endfacet
   facet normal 1.000000e+000 -0.000000e+000 0.000000e+000
      outer loop
         vertex 4.600000e+001 2.500000e+001 1.650000e+001
         vertex 4.600000e+001 -2.500000e+001 1.650000e+001
         vertex 4.600000e+001 -2.500000e+001 -1.650000e+001
      endloop
   endfacet
   facet normal 1.000000e+000 0.000000e+000 0.000000e+000
      outer loop
         vertex 4.600000e+001 2.500000e+001 -1.650000e+001
         vertex 4.600000e+001 2.500000e+001 1.650000e+001
         vertex 4.600000e+001 -2.500000e+001 -1.650000e+001
      endloop
   endfacet
   facet normal 5.124575e-001 0.000000e+000 -8.587126e-001
      outer loop
         vertex 1.030000e+002 2.500000e+001 5.051613e+001
         vertex 1.030000e+002 -2.500000e+001 5.051613e+001
         vertex 4.600000e+001 -2.500000e+001 1.650000e+001
      endloop
   endfacet
   facet normal 5.124575e-001 0.000000e+000 -8.587126e-001
      outer loop
         vertex 4.600000e+001 2.500000e+001 1.650000e+001
         vertex 1.030000e+002 2.500000e+001 5.051613e+001
         vertex 4.600000e+001 -2.500000e+001 1.650000e+001
      endloop
   endfacet
   facet normal -2.859296e-001 0.000000e+000 -9.582506e-001
      outer loop
         vertex 1.550000e+002 2.500000e+001 3.500000e+001
         vertex 1.550000e+002 -2.500000e+001 3.500000e+001
         vertex 1.030000e+002 -2.500000e+001 5.051613e+001
      endloop
   endfacet
   facet normal -2.859296e-001 0.000000e+000 -9.582506e-001
      outer loop
         vertex 1.030000e+002 2.500000e+001 5.051613e+001
         vertex 1.550000e+002 2.500000e+001 3.500000e+001
         vertex 1.030000e+002 -2.500000e+001 5.051613e+001
      endloop
   endfacet
   facet normal 6.369803e-001 -0.000000e+000 7.708801e-001
      outer loop
         vertex 1.030000e+002 2.500000e+001 7.796774e+001
         vertex 1.030000e+002 -2.500000e+001 7.796774e+001
         vertex 1.550000e+002 -2.500000e+001 3.500000e+001
      endloop
   endfacet
   facet normal 6.369803e-001 0.000000e+000 7.708801e-001
      outer loop
         vertex 1.550000e+002 2.500000e+001 3.500000e+001
         vertex 1.030000e+002 2.500000e+001 7.796774e+001
         vertex 1.550000e+002 -2.500000e+001 3.500000e+001
      endloop
   endfacet
endsolid
