solid 
   facet normal -0.000000e+000 -7.299549e-002 -9.973323e-001
      outer loop
         vertex 0.000000e+000 0.000000e+000 -3.800000e+001
         vertex 3.260000e+002 0.000000e+000 -3.800000e+001
         vertex 3.260000e+002 -5.532845e+000 -3.759505e+001
      endloop
   endfacet
   facet normal -0.000000e+000 -3.572313e-001 -9.340160e-001
      outer loop
         vertex 3.260000e+002 -1.094777e+001 -3.638882e+001
         vertex 3.260000e+002 -1.612935e+001 -3.440703e+001
         vertex 0.000000e+000 -1.612935e+001 -3.440703e+001
      endloop
   endfacet
   facet normal -0.000000e+000 -6.111739e-001 -7.914963e-001
      outer loop
         vertex 3.260000e+002 -2.096717e+001 -3.169192e+001
         vertex 3.260000e+002 -2.535811e+001 -2.830134e+001
         vertex 0.000000e+000 -2.535811e+001 -2.830134e+001
      endloop
   endfacet
   facet normal -0.000000e+000 -8.132897e-001 -5.818590e-001
      outer loop
         vertex 3.260000e+002 -2.920859e+001 -2.430758e+001
         vertex 3.260000e+002 -3.243654e+001 -1.979573e+001
         vertex 0.000000e+000 -3.243654e+001 -1.979573e+001
      endloop
   endfacet
   facet normal -0.000000e+000 -9.464398e-001 -3.228804e-001
      outer loop
         vertex 3.260000e+002 -3.497316e+001 -1.486198e+001
         vertex 3.260000e+002 -3.676438e+001 -9.611468e+000
         vertex 0.000000e+000 -3.676438e+001 -9.611468e+000
      endloop
   endfacet
   facet normal -0.000000e+000 -9.993329e-001 -3.652181e-002
      outer loop
         vertex 3.260000e+002 -3.777204e+001 -4.156106e+000
         vertex 3.260000e+002 -3.797465e+001 1.387837e+000
         vertex 0.000000e+000 -3.797465e+001 1.387837e+000
      endloop
   endfacet
   facet normal 0.000000e+000 -9.674836e-001 2.529338e-001
      outer loop
         vertex 3.260000e+002 -3.736790e+001 6.902200e+000
         vertex 3.260000e+002 -3.596471e+001 1.226945e+001
         vertex 0.000000e+000 -3.596471e+001 1.226945e+001
      endloop
   endfacet
   facet normal 0.000000e+000 -8.535931e-001 5.209403e-001
      outer loop
         vertex 3.260000e+002 -3.379500e+001 1.737521e+001
         vertex 3.260000e+002 -3.090501e+001 2.211064e+001
         vertex 0.000000e+000 -3.090501e+001 2.211064e+001
      endloop
   endfacet
   facet normal 0.000000e+000 -6.673188e-001 7.447722e-001
      outer loop
         vertex 3.260000e+002 -2.735633e+001 2.637482e+001
         vertex 3.260000e+002 -2.322460e+001 3.007687e+001
         vertex 0.000000e+000 -2.322460e+001 3.007687e+001
      endloop
   endfacet
   facet normal 0.000000e+000 -4.244564e-001 9.054484e-001
      outer loop
         vertex 3.260000e+002 -1.859788e+001 3.313788e+001
         vertex 3.260000e+002 -1.357477e+001 3.549261e+001
         vertex 0.000000e+000 -1.357477e+001 3.549261e+001
      endloop
   endfacet
   facet normal 0.000000e+000 -1.456011e-001 9.893434e-001
      outer loop
         vertex 3.260000e+002 -8.262346e+000 3.709089e+001
         vertex 3.260000e+002 -2.773822e+000 3.789863e+001
         vertex 0.000000e+000 -2.773822e+000 3.789863e+001
      endloop
   endfacet
   facet normal 0.000000e+000 1.456011e-001 9.893434e-001
      outer loop
         vertex 3.260000e+002 2.773822e+000 3.789863e+001
         vertex 3.260000e+002 8.262346e+000 3.709089e+001
         vertex 0.000000e+000 8.262346e+000 3.709089e+001
      endloop
   endfacet
   facet normal 0.000000e+000 4.244564e-001 9.054484e-001
      outer loop
         vertex 3.260000e+002 1.357477e+001 3.549261e+001
         vertex 3.260000e+002 1.859788e+001 3.313788e+001
         vertex 0.000000e+000 1.859788e+001 3.313788e+001
      endloop
   endfacet
   facet normal 0.000000e+000 6.673188e-001 7.447722e-001
      outer loop
         vertex 3.260000e+002 2.322460e+001 3.007687e+001
         vertex 3.260000e+002 2.735633e+001 2.637482e+001
         vertex 0.000000e+000 2.735633e+001 2.637482e+001
      endloop
   endfacet
   facet normal 0.000000e+000 8.535931e-001 5.209403e-001
      outer loop
         vertex 3.260000e+002 3.090501e+001 2.211064e+001
         vertex 3.260000e+002 3.379500e+001 1.737521e+001
         vertex 0.000000e+000 3.379500e+001 1.737521e+001
      endloop
   endfacet
   facet normal 0.000000e+000 9.674836e-001 2.529338e-001
      outer loop
         vertex 3.260000e+002 3.596471e+001 1.226945e+001
         vertex 3.260000e+002 3.736790e+001 6.902200e+000
         vertex 0.000000e+000 3.736790e+001 6.902200e+000
      endloop
   endfacet
   facet normal 0.000000e+000 9.993329e-001 -3.652181e-002
      outer loop
         vertex 3.260000e+002 3.797465e+001 1.387837e+000
         vertex 3.260000e+002 3.777204e+001 -4.156106e+000
         vertex 0.000000e+000 3.777204e+001 -4.156106e+000
      endloop
   endfacet
   facet normal 0.000000e+000 9.464398e-001 -3.228804e-001
      outer loop
         vertex 3.260000e+002 3.676438e+001 -9.611468e+000
         vertex 3.260000e+002 3.497316e+001 -1.486198e+001
         vertex 0.000000e+000 3.497316e+001 -1.486198e+001
      endloop
   endfacet
   facet normal 0.000000e+000 8.132897e-001 -5.818590e-001
      outer loop
         vertex 3.260000e+002 3.243654e+001 -1.979573e+001
         vertex 3.260000e+002 2.920859e+001 -2.430758e+001
         vertex 0.000000e+000 2.920859e+001 -2.430758e+001
      endloop
   endfacet
   facet normal 0.000000e+000 6.111739e-001 -7.914963e-001
      outer loop
         vertex 3.260000e+002 2.535811e+001 -2.830134e+001
         vertex 3.260000e+002 2.096717e+001 -3.169192e+001
         vertex 0.000000e+000 2.096717e+001 -3.169192e+001
      endloop
   endfacet
   facet normal 0.000000e+000 3.572313e-001 -9.340160e-001
      outer loop
         vertex 3.260000e+002 1.612935e+001 -3.440703e+001
         vertex 3.260000e+002 1.094777e+001 -3.638882e+001
         vertex 0.000000e+000 1.094777e+001 -3.638882e+001
      endloop
   endfacet
   facet normal 0.000000e+000 7.299549e-002 -9.973323e-001
      outer loop
         vertex 3.260000e+002 5.532845e+000 -3.759505e+001
         vertex 3.260000e+002 0.000000e+000 -3.800000e+001
         vertex 0.000000e+000 0.000000e+000 -3.800000e+001
      endloop
   endfacet
   facet normal 0.000000e+000 2.174297e-001 -9.760760e-001
      outer loop
         vertex 0.000000e+000 5.532845e+000 -3.759505e+001
         vertex 0.000000e+000 1.094777e+001 -3.638882e+001
         vertex 3.260000e+002 1.094777e+001 -3.638882e+001
      endloop
   endfacet
   facet normal 0.000000e+000 4.894176e-001 -8.720495e-001
      outer loop
         vertex 0.000000e+000 1.612935e+001 -3.440703e+001
         vertex 0.000000e+000 2.096717e+001 -3.169192e+001
         vertex 3.260000e+002 2.096717e+001 -3.169192e+001
      endloop
   endfacet
   facet normal 0.000000e+000 7.199033e-001 -6.940744e-001
      outer loop
         vertex 0.000000e+000 2.535811e+001 -2.830134e+001
         vertex 0.000000e+000 2.920859e+001 -2.430758e+001
         vertex 3.260000e+002 2.920859e+001 -2.430758e+001
      endloop
   endfacet
   facet normal 0.000000e+000 8.893422e-001 -4.572423e-001
      outer loop
         vertex 0.000000e+000 3.243654e+001 -1.979573e+001
         vertex 0.000000e+000 3.497316e+001 -1.486198e+001
         vertex 3.260000e+002 3.497316e+001 -1.486198e+001
      endloop
   endfacet
   facet normal 0.000000e+000 9.833657e-001 -1.816368e-001
      outer loop
         vertex 0.000000e+000 3.676438e+001 -9.611468e+000
         vertex 0.000000e+000 3.777204e+001 -4.156106e+000
         vertex 3.260000e+002 3.777204e+001 -4.156106e+000
      endloop
   endfacet
   facet normal -0.000000e+000 9.940010e-001 1.093709e-001
      outer loop
         vertex 0.000000e+000 3.797465e+001 1.387837e+000
         vertex 0.000000e+000 3.736790e+001 6.902200e+000
         vertex 3.260000e+002 3.736790e+001 6.902200e+000
      endloop
   endfacet
   facet normal -0.000000e+000 9.203463e-001 3.911045e-001
      outer loop
         vertex 0.000000e+000 3.596471e+001 1.226945e+001
         vertex 0.000000e+000 3.379500e+001 1.737521e+001
         vertex 3.260000e+002 3.379500e+001 1.737521e+001
      endloop
   endfacet
   facet normal -0.000000e+000 7.686471e-001 6.396731e-001
      outer loop
         vertex 0.000000e+000 3.090501e+001 2.211064e+001
         vertex 0.000000e+000 2.735633e+001 2.637482e+001
         vertex 3.260000e+002 2.735633e+001 2.637482e+001
      endloop
   endfacet
   facet normal -0.000000e+000 5.517678e-001 8.339978e-001
      outer loop
         vertex 0.000000e+000 2.322460e+001 3.007687e+001
         vertex 0.000000e+000 1.859788e+001 3.313788e+001
         vertex 3.260000e+002 1.859788e+001 3.313788e+001
      endloop
   endfacet
   facet normal -0.000000e+000 2.880996e-001 9.576005e-001
      outer loop
         vertex 0.000000e+000 1.357477e+001 3.549261e+001
         vertex 0.000000e+000 8.262346e+000 3.709089e+001
         vertex 3.260000e+002 8.262346e+000 3.709089e+001
      endloop
   endfacet
   facet normal 0.000000e+000 0.000000e+000 1.000000e+000
      outer loop
         vertex 0.000000e+000 2.773822e+000 3.789863e+001
         vertex 0.000000e+000 -2.773822e+000 3.789863e+001
         vertex 3.260000e+002 -2.773822e+000 3.789863e+001
      endloop
   endfacet
   facet normal 0.000000e+000 -2.880996e-001 9.576005e-001
      outer loop
         vertex 0.000000e+000 -8.262346e+000 3.709089e+001
         vertex 0.000000e+000 -1.357477e+001 3.549261e+001
         vertex 3.260000e+002 -1.357477e+001 3.549261e+001
      endloop
   endfacet
   facet normal 0.000000e+000 -5.517678e-001 8.339978e-001
      outer loop
         vertex 0.000000e+000 -1.859788e+001 3.313788e+001
         vertex 0.000000e+000 -2.322460e+001 3.007687e+001
         vertex 3.260000e+002 -2.322460e+001 3.007687e+001
      endloop
   endfacet
   facet normal 0.000000e+000 -7.686471e-001 6.396731e-001
      outer loop
         vertex 0.000000e+000 -2.735633e+001 2.637482e+001
         vertex 0.000000e+000 -3.090501e+001 2.211064e+001
         vertex 3.260000e+002 -3.090501e+001 2.211064e+001
      endloop
   endfacet
   facet normal 0.000000e+000 -9.203463e-001 3.911045e-001
      outer loop
         vertex 0.000000e+000 -3.379500e+001 1.737521e+001
         vertex 0.000000e+000 -3.596471e+001 1.226945e+001
         vertex 3.260000e+002 -3.596471e+001 1.226945e+001
      endloop
   endfacet
   facet normal 0.000000e+000 -9.940010e-001 1.093709e-001
      outer loop
         vertex 0.000000e+000 -3.736790e+001 6.902200e+000
         vertex 0.000000e+000 -3.797465e+001 1.387837e+000
         vertex 3.260000e+002 -3.797465e+001 1.387837e+000
      endloop
   endfacet
   facet normal 0.000000e+000 -9.833657e-001 -1.816368e-001
      outer loop
         vertex 0.000000e+000 -3.777204e+001 -4.156106e+000
         vertex 0.000000e+000 -3.676438e+001 -9.611468e+000
         vertex 3.260000e+002 -3.676438e+001 -9.611468e+000
      endloop
   endfacet
   facet normal 0.000000e+000 -8.893422e-001 -4.572423e-001
      outer loop
         vertex 0.000000e+000 -3.497316e+001 -1.486198e+001
         vertex 0.000000e+000 -3.243654e+001 -1.979573e+001
         vertex 3.260000e+002 -3.243654e+001 -1.979573e+001
      endloop
   endfacet
   facet normal 0.000000e+000 -7.199033e-001 -6.940744e-001
      outer loop
         vertex 0.000000e+000 -2.920859e+001 -2.430758e+001
         vertex 0.000000e+000 -2.535811e+001 -2.830134e+001
         vertex 3.260000e+002 -2.535811e+001 -2.830134e+001
      endloop
   endfacet
   facet normal 0.000000e+000 -4.894176e-001 -8.720495e-001
      outer loop
         vertex 0.000000e+000 -2.096717e+001 -3.169192e+001
         vertex 0.000000e+000 -1.612935e+001 -3.440703e+001
         vertex 3.260000e+002 -1.612935e+001 -3.440703e+001
      endloop
   endfacet
   facet normal 0.000000e+000 -2.174297e-001 -9.760760e-001
      outer loop
         vertex 0.000000e+000 -1.094777e+001 -3.638882e+001
         vertex 0.000000e+000 -5.532845e+000 -3.759505e+001
         vertex 3.260000e+002 -5.532845e+000 -3.759505e+001
      endloop
   endfacet
   facet normal -0.000000e+000 -7.299549e-002 -9.973323e-001
      outer loop
         vertex 0.000000e+000 0.000000e+000 -3.800000e+001
         vertex 3.260000e+002 -5.532845e+000 -3.759505e+001
         vertex 0.000000e+000 -5.532845e+000 -3.759505e+001
      endloop
   endfacet
   facet normal 0.000000e+000 -8.132897e-001 -5.818590e-001
      outer loop
         vertex 3.260000e+002 -2.920859e+001 -2.430758e+001
         vertex 0.000000e+000 -3.243654e+001 -1.979573e+001
         vertex 0.000000e+000 -2.920859e+001 -2.430758e+001
      endloop
   endfacet
   facet normal 0.000000e+000 -9.674836e-001 2.529338e-001
      outer loop
         vertex 3.260000e+002 -3.736790e+001 6.902200e+000
         vertex 0.000000e+000 -3.596471e+001 1.226945e+001
         vertex 0.000000e+000 -3.736790e+001 6.902200e+000
      endloop
   endfacet
   facet normal 0.000000e+000 -4.244564e-001 9.054484e-001
      outer loop
         vertex 3.260000e+002 -1.859788e+001 3.313788e+001
         vertex 0.000000e+000 -1.357477e+001 3.549261e+001
         vertex 0.000000e+000 -1.859788e+001 3.313788e+001
      endloop
   endfacet
   facet normal 0.000000e+000 4.244564e-001 9.054484e-001
      outer loop
         vertex 3.260000e+002 1.357477e+001 3.549261e+001
         vertex 0.000000e+000 1.859788e+001 3.313788e+001
         vertex 0.000000e+000 1.357477e+001 3.549261e+001
      endloop
   endfacet
   facet normal 0.000000e+000 9.674836e-001 2.529338e-001
      outer loop
         vertex 3.260000e+002 3.596471e+001 1.226945e+001
         vertex 0.000000e+000 3.736790e+001 6.902200e+000
         vertex 0.000000e+000 3.596471e+001 1.226945e+001
      endloop
   endfacet
   facet normal 0.000000e+000 8.132897e-001 -5.818590e-001
      outer loop
         vertex 3.260000e+002 3.243654e+001 -1.979573e+001
         vertex 0.000000e+000 2.920859e+001 -2.430758e+001
         vertex 0.000000e+000 3.243654e+001 -1.979573e+001
      endloop
   endfacet
   facet normal 0.000000e+000 7.299549e-002 -9.973323e-001
      outer loop
         vertex 3.260000e+002 5.532845e+000 -3.759505e+001
         vertex 0.000000e+000 0.000000e+000 -3.800000e+001
         vertex 0.000000e+000 5.532845e+000 -3.759505e+001
      endloop
   endfacet
   facet normal 0.000000e+000 7.199033e-001 -6.940744e-001
      outer loop
         vertex 0.000000e+000 2.535811e+001 -2.830134e+001
         vertex 3.260000e+002 2.920859e+001 -2.430758e+001
         vertex 3.260000e+002 2.535811e+001 -2.830134e+001
      endloop
   endfacet
   facet normal 0.000000e+000 9.940010e-001 1.093709e-001
      outer loop
         vertex 0.000000e+000 3.797465e+001 1.387837e+000
         vertex 3.260000e+002 3.736790e+001 6.902200e+000
         vertex 3.260000e+002 3.797465e+001 1.387837e+000
      endloop
   endfacet
   facet normal 0.000000e+000 5.517678e-001 8.339978e-001
      outer loop
         vertex 0.000000e+000 2.322460e+001 3.007687e+001
         vertex 3.260000e+002 1.859788e+001 3.313788e+001
         vertex 3.260000e+002 2.322460e+001 3.007687e+001
      endloop
   endfacet
   facet normal 0.000000e+000 -2.880996e-001 9.576005e-001
      outer loop
         vertex 0.000000e+000 -8.262346e+000 3.709089e+001
         vertex 3.260000e+002 -1.357477e+001 3.549261e+001
         vertex 3.260000e+002 -8.262346e+000 3.709089e+001
      endloop
   endfacet
   facet normal 0.000000e+000 -9.203463e-001 3.911045e-001
      outer loop
         vertex 0.000000e+000 -3.379500e+001 1.737521e+001
         vertex 3.260000e+002 -3.596471e+001 1.226945e+001
         vertex 3.260000e+002 -3.379500e+001 1.737521e+001
      endloop
   endfacet
   facet normal 0.000000e+000 -8.893422e-001 -4.572423e-001
      outer loop
         vertex 0.000000e+000 -3.497316e+001 -1.486198e+001
         vertex 3.260000e+002 -3.243654e+001 -1.979573e+001
         vertex 3.260000e+002 -3.497316e+001 -1.486198e+001
      endloop
   endfacet
   facet normal 0.000000e+000 -2.174297e-001 -9.760760e-001
      outer loop
         vertex 0.000000e+000 -1.094777e+001 -3.638882e+001
         vertex 3.260000e+002 -5.532845e+000 -3.759505e+001
         vertex 3.260000e+002 -1.094777e+001 -3.638882e+001
      endloop
   endfacet
   facet normal 0.000000e+000 -5.517678e-001 8.339978e-001
      outer loop
         vertex 3.260000e+002 -1.859788e+001 3.313788e+001
         vertex 0.000000e+000 -1.859788e+001 3.313788e+001
         vertex 3.260000e+002 -2.322460e+001 3.007687e+001
      endloop
   endfacet
   facet normal 0.000000e+000 2.174297e-001 -9.760760e-001
      outer loop
         vertex 3.260000e+002 5.532845e+000 -3.759505e+001
         vertex 0.000000e+000 5.532845e+000 -3.759505e+001
         vertex 3.260000e+002 1.094777e+001 -3.638882e+001
      endloop
   endfacet
   facet normal 0.000000e+000 -1.456011e-001 9.893434e-001
      outer loop
         vertex 0.000000e+000 -8.262346e+000 3.709089e+001
         vertex 3.260000e+002 -8.262346e+000 3.709089e+001
         vertex 0.000000e+000 -2.773822e+000 3.789863e+001
      endloop
   endfacet
   facet normal -0.000000e+000 -4.894176e-001 -8.720495e-001
      outer loop
         vertex 3.260000e+002 -1.612935e+001 -3.440703e+001
         vertex 3.260000e+002 -2.096717e+001 -3.169192e+001
         vertex 0.000000e+000 -2.096717e+001 -3.169192e+001
      endloop
   endfacet
   facet normal -0.000000e+000 -9.833657e-001 -1.816368e-001
      outer loop
         vertex 3.260000e+002 -3.676438e+001 -9.611468e+000
         vertex 3.260000e+002 -3.777204e+001 -4.156106e+000
         vertex 0.000000e+000 -3.777204e+001 -4.156106e+000
      endloop
   endfacet
   facet normal 0.000000e+000 -7.686471e-001 6.396731e-001
      outer loop
         vertex 3.260000e+002 -3.090501e+001 2.211064e+001
         vertex 3.260000e+002 -2.735633e+001 2.637482e+001
         vertex 0.000000e+000 -2.735633e+001 2.637482e+001
      endloop
   endfacet
   facet normal 0.000000e+000 2.880996e-001 9.576005e-001
      outer loop
         vertex 3.260000e+002 8.262346e+000 3.709089e+001
         vertex 3.260000e+002 1.357477e+001 3.549261e+001
         vertex 0.000000e+000 1.357477e+001 3.549261e+001
      endloop
   endfacet
   facet normal 0.000000e+000 9.203463e-001 3.911045e-001
      outer loop
         vertex 3.260000e+002 3.379500e+001 1.737521e+001
         vertex 3.260000e+002 3.596471e+001 1.226945e+001
         vertex 0.000000e+000 3.596471e+001 1.226945e+001
      endloop
   endfacet
   facet normal 0.000000e+000 8.893422e-001 -4.572423e-001
      outer loop
         vertex 3.260000e+002 3.497316e+001 -1.486198e+001
         vertex 3.260000e+002 3.243654e+001 -1.979573e+001
         vertex 0.000000e+000 3.243654e+001 -1.979573e+001
      endloop
   endfacet
   facet normal 0.000000e+000 3.572313e-001 -9.340160e-001
      outer loop
         vertex 0.000000e+000 1.094777e+001 -3.638882e+001
         vertex 0.000000e+000 1.612935e+001 -3.440703e+001
         vertex 3.260000e+002 1.612935e+001 -3.440703e+001
      endloop
   endfacet
   facet normal 0.000000e+000 9.464398e-001 -3.228804e-001
      outer loop
         vertex 0.000000e+000 3.497316e+001 -1.486198e+001
         vertex 0.000000e+000 3.676438e+001 -9.611468e+000
         vertex 3.260000e+002 3.676438e+001 -9.611468e+000
      endloop
   endfacet
   facet normal -0.000000e+000 8.535931e-001 5.209403e-001
      outer loop
         vertex 0.000000e+000 3.379500e+001 1.737521e+001
         vertex 0.000000e+000 3.090501e+001 2.211064e+001
         vertex 3.260000e+002 3.090501e+001 2.211064e+001
      endloop
   endfacet
   facet normal -0.000000e+000 1.456011e-001 9.893434e-001
      outer loop
         vertex 0.000000e+000 8.262346e+000 3.709089e+001
         vertex 0.000000e+000 2.773822e+000 3.789863e+001
         vertex 3.260000e+002 2.773822e+000 3.789863e+001
      endloop
   endfacet
   facet normal 0.000000e+000 -8.535931e-001 5.209403e-001
      outer loop
         vertex 0.000000e+000 -3.090501e+001 2.211064e+001
         vertex 0.000000e+000 -3.379500e+001 1.737521e+001
         vertex 3.260000e+002 -3.379500e+001 1.737521e+001
      endloop
   endfacet
   facet normal 0.000000e+000 -9.464398e-001 -3.228804e-001
      outer loop
         vertex 0.000000e+000 -3.676438e+001 -9.611468e+000
         vertex 0.000000e+000 -3.497316e+001 -1.486198e+001
         vertex 3.260000e+002 -3.497316e+001 -1.486198e+001
      endloop
   endfacet
   facet normal 0.000000e+000 -3.572313e-001 -9.340160e-001
      outer loop
         vertex 0.000000e+000 -1.612935e+001 -3.440703e+001
         vertex 0.000000e+000 -1.094777e+001 -3.638882e+001
         vertex 3.260000e+002 -1.094777e+001 -3.638882e+001
      endloop
   endfacet
   facet normal 0.000000e+000 -9.993329e-001 -3.652181e-002
      outer loop
         vertex 3.260000e+002 -3.777204e+001 -4.156106e+000
         vertex 0.000000e+000 -3.797465e+001 1.387837e+000
         vertex 0.000000e+000 -3.777204e+001 -4.156106e+000
      endloop
   endfacet
   facet normal 0.000000e+000 9.993329e-001 -3.652181e-002
      outer loop
         vertex 3.260000e+002 3.797465e+001 1.387837e+000
         vertex 0.000000e+000 3.777204e+001 -4.156106e+000
         vertex 0.000000e+000 3.797465e+001 1.387837e+000
      endloop
   endfacet
   facet normal 0.000000e+000 9.833657e-001 -1.816368e-001
      outer loop
         vertex 0.000000e+000 3.676438e+001 -9.611468e+000
         vertex 3.260000e+002 3.777204e+001 -4.156106e+000
         vertex 3.260000e+002 3.676438e+001 -9.611468e+000
      endloop
   endfacet
   facet normal 0.000000e+000 -9.940010e-001 1.093709e-001
      outer loop
         vertex 0.000000e+000 -3.736790e+001 6.902200e+000
         vertex 3.260000e+002 -3.797465e+001 1.387837e+000
         vertex 3.260000e+002 -3.736790e+001 6.902200e+000
      endloop
   endfacet
   facet normal 0.000000e+000 6.111739e-001 -7.914963e-001
      outer loop
         vertex 0.000000e+000 2.535811e+001 -2.830134e+001
         vertex 3.260000e+002 2.535811e+001 -2.830134e+001
         vertex 0.000000e+000 2.096717e+001 -3.169192e+001
      endloop
   endfacet
   facet normal 0.000000e+000 4.894176e-001 -8.720495e-001
      outer loop
         vertex 3.260000e+002 1.612935e+001 -3.440703e+001
         vertex 0.000000e+000 1.612935e+001 -3.440703e+001
         vertex 3.260000e+002 2.096717e+001 -3.169192e+001
      endloop
   endfacet
   facet normal -0.000000e+000 -7.199033e-001 -6.940744e-001
      outer loop
         vertex 3.260000e+002 -2.535811e+001 -2.830134e+001
         vertex 3.260000e+002 -2.920859e+001 -2.430758e+001
         vertex 0.000000e+000 -2.920859e+001 -2.430758e+001
      endloop
   endfacet
   facet normal 0.000000e+000 7.686471e-001 6.396731e-001
      outer loop
         vertex 3.260000e+002 2.735633e+001 2.637482e+001
         vertex 3.260000e+002 3.090501e+001 2.211064e+001
         vertex 0.000000e+000 3.090501e+001 2.211064e+001
      endloop
   endfacet
   facet normal 0.000000e+000 -6.673188e-001 7.447722e-001
      outer loop
         vertex 0.000000e+000 -2.322460e+001 3.007687e+001
         vertex 0.000000e+000 -2.735633e+001 2.637482e+001
         vertex 3.260000e+002 -2.735633e+001 2.637482e+001
      endloop
   endfacet
   facet normal 0.000000e+000 -6.111739e-001 -7.914963e-001
      outer loop
         vertex 3.260000e+002 -2.096717e+001 -3.169192e+001
         vertex 0.000000e+000 -2.535811e+001 -2.830134e+001
         vertex 0.000000e+000 -2.096717e+001 -3.169192e+001
      endloop
   endfacet
   facet normal 0.000000e+000 6.673188e-001 7.447722e-001
      outer loop
         vertex 0.000000e+000 2.322460e+001 3.007687e+001
         vertex 3.260000e+002 2.322460e+001 3.007687e+001
         vertex 0.000000e+000 2.735633e+001 2.637482e+001
      endloop
   endfacet
   facet normal 0.000000e+000 0.000000e+000 1.000000e+000
      outer loop
         vertex 3.260000e+002 -2.773822e+000 3.789863e+001
         vertex 3.260000e+002 2.773822e+000 3.789863e+001
         vertex 0.000000e+000 2.773822e+000 3.789863e+001
      endloop
   endfacet
   facet normal -1.000000e+000 0.000000e+000 0.000000e+000
      outer loop
         vertex 0.000000e+000 5.532845e+000 -3.759505e+001
         vertex 0.000000e+000 0.000000e+000 -3.800000e+001
         vertex 0.000000e+000 -1.612935e+001 -3.440703e+001
      endloop
   endfacet
   facet normal -1.000000e+000 0.000000e+000 0.000000e+000
      outer loop
         vertex 0.000000e+000 -5.532845e+000 -3.759505e+001
         vertex 0.000000e+000 -1.094777e+001 -3.638882e+001
         vertex 0.000000e+000 0.000000e+000 -3.800000e+001
      endloop
   endfacet
   facet normal -1.000000e+000 0.000000e+000 0.000000e+000
      outer loop
         vertex 0.000000e+000 -2.096717e+001 -3.169192e+001
         vertex 0.000000e+000 -2.535811e+001 -2.830134e+001
         vertex 0.000000e+000 -2.920859e+001 -2.430758e+001
      endloop
   endfacet
   facet normal -1.000000e+000 0.000000e+000 0.000000e+000
      outer loop
         vertex 0.000000e+000 -3.243654e+001 -1.979573e+001
         vertex 0.000000e+000 -3.497316e+001 -1.486198e+001
         vertex 0.000000e+000 -1.612935e+001 -3.440703e+001
      endloop
   endfacet
   facet normal -1.000000e+000 0.000000e+000 0.000000e+000
      outer loop
         vertex 0.000000e+000 -3.676438e+001 -9.611468e+000
         vertex 0.000000e+000 -3.777204e+001 -4.156106e+000
         vertex 0.000000e+000 -3.497316e+001 -1.486198e+001
      endloop
   endfacet
   facet normal -1.000000e+000 0.000000e+000 -0.000000e+000
      outer loop
         vertex 0.000000e+000 -3.736790e+001 6.902200e+000
         vertex 0.000000e+000 -3.596471e+001 1.226945e+001
         vertex 0.000000e+000 -3.090501e+001 2.211064e+001
      endloop
   endfacet
   facet normal -1.000000e+000 0.000000e+000 0.000000e+000
      outer loop
         vertex 0.000000e+000 -3.379500e+001 1.737521e+001
         vertex 0.000000e+000 -3.090501e+001 2.211064e+001
         vertex 0.000000e+000 -3.596471e+001 1.226945e+001
      endloop
   endfacet
   facet normal -1.000000e+000 0.000000e+000 -0.000000e+000
      outer loop
         vertex 0.000000e+000 -2.322460e+001 3.007687e+001
         vertex 0.000000e+000 -1.859788e+001 3.313788e+001
         vertex 0.000000e+000 -1.612935e+001 -3.440703e+001
      endloop
   endfacet
   facet normal -1.000000e+000 0.000000e+000 0.000000e+000
      outer loop
         vertex 0.000000e+000 -1.357477e+001 3.549261e+001
         vertex 0.000000e+000 -8.262346e+000 3.709089e+001
         vertex 0.000000e+000 -1.859788e+001 3.313788e+001
      endloop
   endfacet
   facet normal -1.000000e+000 -0.000000e+000 -0.000000e+000
      outer loop
         vertex 0.000000e+000 2.773822e+000 3.789863e+001
         vertex 0.000000e+000 8.262346e+000 3.709089e+001
         vertex 0.000000e+000 2.096717e+001 -3.169192e+001
      endloop
   endfacet
   facet normal -1.000000e+000 -0.000000e+000 -0.000000e+000
      outer loop
         vertex 0.000000e+000 1.357477e+001 3.549261e+001
         vertex 0.000000e+000 1.859788e+001 3.313788e+001
         vertex 0.000000e+000 2.322460e+001 3.007687e+001
      endloop
   endfacet
   facet normal -1.000000e+000 -0.000000e+000 -0.000000e+000
      outer loop
         vertex 0.000000e+000 2.735633e+001 2.637482e+001
         vertex 0.000000e+000 3.090501e+001 2.211064e+001
         vertex 0.000000e+000 3.596471e+001 1.226945e+001
      endloop
   endfacet
   facet normal -1.000000e+000 0.000000e+000 0.000000e+000
      outer loop
         vertex 0.000000e+000 3.379500e+001 1.737521e+001
         vertex 0.000000e+000 3.596471e+001 1.226945e+001
         vertex 0.000000e+000 3.090501e+001 2.211064e+001
      endloop
   endfacet
   facet normal -1.000000e+000 0.000000e+000 0.000000e+000
      outer loop
         vertex 0.000000e+000 3.797465e+001 1.387837e+000
         vertex 0.000000e+000 3.777204e+001 -4.156106e+000
         vertex 0.000000e+000 3.736790e+001 6.902200e+000
      endloop
   endfacet
   facet normal -1.000000e+000 -0.000000e+000 0.000000e+000
      outer loop
         vertex 0.000000e+000 3.497316e+001 -1.486198e+001
         vertex 0.000000e+000 3.243654e+001 -1.979573e+001
         vertex 0.000000e+000 2.920859e+001 -2.430758e+001
      endloop
   endfacet
   facet normal -1.000000e+000 0.000000e+000 0.000000e+000
      outer loop
         vertex 0.000000e+000 2.535811e+001 -2.830134e+001
         vertex 0.000000e+000 2.096717e+001 -3.169192e+001
         vertex 0.000000e+000 3.736790e+001 6.902200e+000
      endloop
   endfacet
   facet normal -1.000000e+000 -0.000000e+000 0.000000e+000
      outer loop
         vertex 0.000000e+000 1.612935e+001 -3.440703e+001
         vertex 0.000000e+000 1.094777e+001 -3.638882e+001
         vertex 0.000000e+000 5.532845e+000 -3.759505e+001
      endloop
   endfacet
   facet normal -1.000000e+000 0.000000e+000 0.000000e+000
      outer loop
         vertex 0.000000e+000 -1.612935e+001 -3.440703e+001
         vertex 0.000000e+000 0.000000e+000 -3.800000e+001
         vertex 0.000000e+000 -1.094777e+001 -3.638882e+001
      endloop
   endfacet
   facet normal -1.000000e+000 0.000000e+000 0.000000e+000
      outer loop
         vertex 0.000000e+000 -3.497316e+001 -1.486198e+001
         vertex 0.000000e+000 -3.777204e+001 -4.156106e+000
         vertex 0.000000e+000 -2.322460e+001 3.007687e+001
      endloop
   endfacet
   facet normal -1.000000e+000 0.000000e+000 0.000000e+000
      outer loop
         vertex 0.000000e+000 -2.322460e+001 3.007687e+001
         vertex 0.000000e+000 -1.612935e+001 -3.440703e+001
         vertex 0.000000e+000 -3.497316e+001 -1.486198e+001
      endloop
   endfacet
   facet normal -1.000000e+000 -0.000000e+000 0.000000e+000
      outer loop
         vertex 0.000000e+000 2.773822e+000 3.789863e+001
         vertex 0.000000e+000 2.096717e+001 -3.169192e+001
         vertex 0.000000e+000 5.532845e+000 -3.759505e+001
      endloop
   endfacet
   facet normal -1.000000e+000 0.000000e+000 0.000000e+000
      outer loop
         vertex 0.000000e+000 1.357477e+001 3.549261e+001
         vertex 0.000000e+000 2.322460e+001 3.007687e+001
         vertex 0.000000e+000 8.262346e+000 3.709089e+001
      endloop
   endfacet
   facet normal -1.000000e+000 0.000000e+000 0.000000e+000
      outer loop
         vertex 0.000000e+000 3.497316e+001 -1.486198e+001
         vertex 0.000000e+000 2.920859e+001 -2.430758e+001
         vertex 0.000000e+000 3.736790e+001 6.902200e+000
      endloop
   endfacet
   facet normal -1.000000e+000 0.000000e+000 0.000000e+000
      outer loop
         vertex 0.000000e+000 3.736790e+001 6.902200e+000
         vertex 0.000000e+000 2.096717e+001 -3.169192e+001
         vertex 0.000000e+000 8.262346e+000 3.709089e+001
      endloop
   endfacet
   facet normal -1.000000e+000 0.000000e+000 0.000000e+000
      outer loop
         vertex 0.000000e+000 2.773822e+000 3.789863e+001
         vertex 0.000000e+000 5.532845e+000 -3.759505e+001
         vertex 0.000000e+000 -1.612935e+001 -3.440703e+001
      endloop
   endfacet
   facet normal -1.000000e+000 0.000000e+000 0.000000e+000
      outer loop
         vertex 0.000000e+000 3.497316e+001 -1.486198e+001
         vertex 0.000000e+000 3.736790e+001 6.902200e+000
         vertex 0.000000e+000 3.676438e+001 -9.611468e+000
      endloop
   endfacet
   facet normal -1.000000e+000 0.000000e+000 -0.000000e+000
      outer loop
         vertex 0.000000e+000 3.676438e+001 -9.611468e+000
         vertex 0.000000e+000 3.736790e+001 6.902200e+000
         vertex 0.000000e+000 3.777204e+001 -4.156106e+000
      endloop
   endfacet
   facet normal -1.000000e+000 0.000000e+000 0.000000e+000
      outer loop
         vertex 0.000000e+000 -1.612935e+001 -3.440703e+001
         vertex 0.000000e+000 -2.096717e+001 -3.169192e+001
         vertex 0.000000e+000 -3.243654e+001 -1.979573e+001
      endloop
   endfacet
   facet normal -1.000000e+000 0.000000e+000 0.000000e+000
      outer loop
         vertex 0.000000e+000 -3.777204e+001 -4.156106e+000
         vertex 0.000000e+000 -3.797465e+001 1.387837e+000
         vertex 0.000000e+000 -3.736790e+001 6.902200e+000
      endloop
   endfacet
   facet normal -1.000000e+000 0.000000e+000 0.000000e+000
      outer loop
         vertex 0.000000e+000 -2.735633e+001 2.637482e+001
         vertex 0.000000e+000 -2.322460e+001 3.007687e+001
         vertex 0.000000e+000 -3.090501e+001 2.211064e+001
      endloop
   endfacet
   facet normal -1.000000e+000 0.000000e+000 0.000000e+000
      outer loop
         vertex 0.000000e+000 2.322460e+001 3.007687e+001
         vertex 0.000000e+000 2.735633e+001 2.637482e+001
         vertex 0.000000e+000 8.262346e+000 3.709089e+001
      endloop
   endfacet
   facet normal -1.000000e+000 0.000000e+000 0.000000e+000
      outer loop
         vertex 0.000000e+000 2.920859e+001 -2.430758e+001
         vertex 0.000000e+000 2.535811e+001 -2.830134e+001
         vertex 0.000000e+000 3.736790e+001 6.902200e+000
      endloop
   endfacet
   facet normal -1.000000e+000 0.000000e+000 0.000000e+000
      outer loop
         vertex 0.000000e+000 -2.096717e+001 -3.169192e+001
         vertex 0.000000e+000 -2.920859e+001 -2.430758e+001
         vertex 0.000000e+000 -3.243654e+001 -1.979573e+001
      endloop
   endfacet
   facet normal -1.000000e+000 0.000000e+000 -0.000000e+000
      outer loop
         vertex 0.000000e+000 -1.859788e+001 3.313788e+001
         vertex 0.000000e+000 -8.262346e+000 3.709089e+001
         vertex 0.000000e+000 -2.773822e+000 3.789863e+001
      endloop
   endfacet
   facet normal -1.000000e+000 0.000000e+000 0.000000e+000
      outer loop
         vertex 0.000000e+000 -2.322460e+001 3.007687e+001
         vertex 0.000000e+000 -3.777204e+001 -4.156106e+000
         vertex 0.000000e+000 -3.736790e+001 6.902200e+000
      endloop
   endfacet
   facet normal -1.000000e+000 0.000000e+000 0.000000e+000
      outer loop
         vertex 0.000000e+000 3.736790e+001 6.902200e+000
         vertex 0.000000e+000 8.262346e+000 3.709089e+001
         vertex 0.000000e+000 2.735633e+001 2.637482e+001
      endloop
   endfacet
   facet normal -1.000000e+000 0.000000e+000 0.000000e+000
      outer loop
         vertex 0.000000e+000 -3.090501e+001 2.211064e+001
         vertex 0.000000e+000 -2.322460e+001 3.007687e+001
         vertex 0.000000e+000 -3.736790e+001 6.902200e+000
      endloop
   endfacet
   facet normal -1.000000e+000 -0.000000e+000 0.000000e+000
      outer loop
         vertex 0.000000e+000 -2.773822e+000 3.789863e+001
         vertex 0.000000e+000 2.773822e+000 3.789863e+001
         vertex 0.000000e+000 -1.859788e+001 3.313788e+001
      endloop
   endfacet
   facet normal -1.000000e+000 -0.000000e+000 0.000000e+000
      outer loop
         vertex 0.000000e+000 2.096717e+001 -3.169192e+001
         vertex 0.000000e+000 1.612935e+001 -3.440703e+001
         vertex 0.000000e+000 5.532845e+000 -3.759505e+001
      endloop
   endfacet
   facet normal -1.000000e+000 -0.000000e+000 -0.000000e+000
      outer loop
         vertex 0.000000e+000 2.735633e+001 2.637482e+001
         vertex 0.000000e+000 3.596471e+001 1.226945e+001
         vertex 0.000000e+000 3.736790e+001 6.902200e+000
      endloop
   endfacet
   facet normal -1.000000e+000 0.000000e+000 0.000000e+000
      outer loop
         vertex 0.000000e+000 -1.612935e+001 -3.440703e+001
         vertex 0.000000e+000 -1.859788e+001 3.313788e+001
         vertex 0.000000e+000 2.773822e+000 3.789863e+001
      endloop
   endfacet
   facet normal 1.000000e+000 -0.000000e+000 -0.000000e+000
      outer loop
         vertex 3.260000e+002 -1.094777e+001 -3.638882e+001
         vertex 3.260000e+002 -5.532845e+000 -3.759505e+001
         vertex 3.260000e+002 0.000000e+000 -3.800000e+001
      endloop
   endfacet
   facet normal 1.000000e+000 -0.000000e+000 -0.000000e+000
      outer loop
         vertex 3.260000e+002 -3.497316e+001 -1.486198e+001
         vertex 3.260000e+002 -2.096717e+001 -3.169192e+001
         vertex 3.260000e+002 -1.612935e+001 -3.440703e+001
      endloop
   endfacet
   facet normal 1.000000e+000 0.000000e+000 0.000000e+000
      outer loop
         vertex 3.260000e+002 -2.096717e+001 -3.169192e+001
         vertex 3.260000e+002 -2.920859e+001 -2.430758e+001
         vertex 3.260000e+002 -2.535811e+001 -2.830134e+001
      endloop
   endfacet
   facet normal 1.000000e+000 -0.000000e+000 -0.000000e+000
      outer loop
         vertex 3.260000e+002 -3.777204e+001 -4.156106e+000
         vertex 3.260000e+002 -3.676438e+001 -9.611468e+000
         vertex 3.260000e+002 -3.497316e+001 -1.486198e+001
      endloop
   endfacet
   facet normal 1.000000e+000 0.000000e+000 0.000000e+000
      outer loop
         vertex 3.260000e+002 -3.777204e+001 -4.156106e+000
         vertex 3.260000e+002 -3.736790e+001 6.902200e+000
         vertex 3.260000e+002 -3.797465e+001 1.387837e+000
      endloop
   endfacet
   facet normal 1.000000e+000 0.000000e+000 0.000000e+000
      outer loop
         vertex 3.260000e+002 -3.596471e+001 1.226945e+001
         vertex 3.260000e+002 -3.090501e+001 2.211064e+001
         vertex 3.260000e+002 -3.379500e+001 1.737521e+001
      endloop
   endfacet
   facet normal 1.000000e+000 0.000000e+000 0.000000e+000
      outer loop
         vertex 3.260000e+002 -1.612935e+001 -3.440703e+001
         vertex 3.260000e+002 -1.859788e+001 3.313788e+001
         vertex 3.260000e+002 -2.322460e+001 3.007687e+001
      endloop
   endfacet
   facet normal 1.000000e+000 0.000000e+000 0.000000e+000
      outer loop
         vertex 3.260000e+002 -1.859788e+001 3.313788e+001
         vertex 3.260000e+002 -8.262346e+000 3.709089e+001
         vertex 3.260000e+002 -1.357477e+001 3.549261e+001
      endloop
   endfacet
   facet normal 1.000000e+000 0.000000e+000 0.000000e+000
      outer loop
         vertex 3.260000e+002 2.096717e+001 -3.169192e+001
         vertex 3.260000e+002 8.262346e+000 3.709089e+001
         vertex 3.260000e+002 2.773822e+000 3.789863e+001
      endloop
   endfacet
   facet normal 1.000000e+000 0.000000e+000 0.000000e+000
      outer loop
         vertex 3.260000e+002 2.322460e+001 3.007687e+001
         vertex 3.260000e+002 1.859788e+001 3.313788e+001
         vertex 3.260000e+002 1.357477e+001 3.549261e+001
      endloop
   endfacet
   facet normal 1.000000e+000 0.000000e+000 0.000000e+000
      outer loop
         vertex 3.260000e+002 3.596471e+001 1.226945e+001
         vertex 3.260000e+002 3.090501e+001 2.211064e+001
         vertex 3.260000e+002 2.735633e+001 2.637482e+001
      endloop
   endfacet
   facet normal 1.000000e+000 0.000000e+000 0.000000e+000
      outer loop
         vertex 3.260000e+002 3.090501e+001 2.211064e+001
         vertex 3.260000e+002 3.596471e+001 1.226945e+001
         vertex 3.260000e+002 3.379500e+001 1.737521e+001
      endloop
   endfacet
   facet normal 1.000000e+000 0.000000e+000 -0.000000e+000
      outer loop
         vertex 3.260000e+002 3.736790e+001 6.902200e+000
         vertex 3.260000e+002 3.777204e+001 -4.156106e+000
         vertex 3.260000e+002 3.797465e+001 1.387837e+000
      endloop
   endfacet
   facet normal 1.000000e+000 0.000000e+000 -0.000000e+000
      outer loop
         vertex 3.260000e+002 2.920859e+001 -2.430758e+001
         vertex 3.260000e+002 3.243654e+001 -1.979573e+001
         vertex 3.260000e+002 3.497316e+001 -1.486198e+001
      endloop
   endfacet
   facet normal 1.000000e+000 0.000000e+000 0.000000e+000
      outer loop
         vertex 3.260000e+002 3.736790e+001 6.902200e+000
         vertex 3.260000e+002 2.096717e+001 -3.169192e+001
         vertex 3.260000e+002 2.535811e+001 -2.830134e+001
      endloop
   endfacet
   facet normal 1.000000e+000 0.000000e+000 -0.000000e+000
      outer loop
         vertex 3.260000e+002 5.532845e+000 -3.759505e+001
         vertex 3.260000e+002 1.094777e+001 -3.638882e+001
         vertex 3.260000e+002 1.612935e+001 -3.440703e+001
      endloop
   endfacet
   facet normal 1.000000e+000 -0.000000e+000 -0.000000e+000
      outer loop
         vertex 3.260000e+002 -1.612935e+001 -3.440703e+001
         vertex 3.260000e+002 -1.094777e+001 -3.638882e+001
         vertex 3.260000e+002 0.000000e+000 -3.800000e+001
      endloop
   endfacet
   facet normal 1.000000e+000 -0.000000e+000 -0.000000e+000
      outer loop
         vertex 3.260000e+002 -3.243654e+001 -1.979573e+001
         vertex 3.260000e+002 -2.920859e+001 -2.430758e+001
         vertex 3.260000e+002 -2.096717e+001 -3.169192e+001
      endloop
   endfacet
   facet normal 1.000000e+000 0.000000e+000 0.000000e+000
      outer loop
         vertex 3.260000e+002 -3.736790e+001 6.902200e+000
         vertex 3.260000e+002 -3.090501e+001 2.211064e+001
         vertex 3.260000e+002 -3.596471e+001 1.226945e+001
      endloop
   endfacet
   facet normal 1.000000e+000 -0.000000e+000 0.000000e+000
      outer loop
         vertex 3.260000e+002 -2.773822e+000 3.789863e+001
         vertex 3.260000e+002 -8.262346e+000 3.709089e+001
         vertex 3.260000e+002 -1.859788e+001 3.313788e+001
      endloop
   endfacet
   facet normal 1.000000e+000 0.000000e+000 0.000000e+000
      outer loop
         vertex 3.260000e+002 8.262346e+000 3.709089e+001
         vertex 3.260000e+002 2.322460e+001 3.007687e+001
         vertex 3.260000e+002 1.357477e+001 3.549261e+001
      endloop
   endfacet
   facet normal 1.000000e+000 0.000000e+000 0.000000e+000
      outer loop
         vertex 3.260000e+002 3.736790e+001 6.902200e+000
         vertex 3.260000e+002 2.920859e+001 -2.430758e+001
         vertex 3.260000e+002 3.497316e+001 -1.486198e+001
      endloop
   endfacet
   facet normal 1.000000e+000 0.000000e+000 -0.000000e+000
      outer loop
         vertex 3.260000e+002 8.262346e+000 3.709089e+001
         vertex 3.260000e+002 2.096717e+001 -3.169192e+001
         vertex 3.260000e+002 3.736790e+001 6.902200e+000
      endloop
   endfacet
   facet normal 1.000000e+000 -0.000000e+000 -0.000000e+000
      outer loop
         vertex 3.260000e+002 -3.497316e+001 -1.486198e+001
         vertex 3.260000e+002 -3.243654e+001 -1.979573e+001
         vertex 3.260000e+002 -2.096717e+001 -3.169192e+001
      endloop
   endfacet
   facet normal 1.000000e+000 0.000000e+000 0.000000e+000
      outer loop
         vertex 3.260000e+002 3.676438e+001 -9.611468e+000
         vertex 3.260000e+002 3.736790e+001 6.902200e+000
         vertex 3.260000e+002 3.497316e+001 -1.486198e+001
      endloop
   endfacet
   facet normal 1.000000e+000 0.000000e+000 0.000000e+000
      outer loop
         vertex 3.260000e+002 3.777204e+001 -4.156106e+000
         vertex 3.260000e+002 3.736790e+001 6.902200e+000
         vertex 3.260000e+002 3.676438e+001 -9.611468e+000
      endloop
   endfacet
   facet normal 1.000000e+000 -0.000000e+000 0.000000e+000
      outer loop
         vertex 3.260000e+002 -2.322460e+001 3.007687e+001
         vertex 3.260000e+002 -2.735633e+001 2.637482e+001
         vertex 3.260000e+002 -3.090501e+001 2.211064e+001
      endloop
   endfacet
   facet normal 1.000000e+000 0.000000e+000 0.000000e+000
      outer loop
         vertex 3.260000e+002 8.262346e+000 3.709089e+001
         vertex 3.260000e+002 2.735633e+001 2.637482e+001
         vertex 3.260000e+002 2.322460e+001 3.007687e+001
      endloop
   endfacet
   facet normal 1.000000e+000 0.000000e+000 0.000000e+000
      outer loop
         vertex 3.260000e+002 3.736790e+001 6.902200e+000
         vertex 3.260000e+002 2.535811e+001 -2.830134e+001
         vertex 3.260000e+002 2.920859e+001 -2.430758e+001
      endloop
   endfacet
   facet normal 1.000000e+000 -0.000000e+000 0.000000e+000
      outer loop
         vertex 3.260000e+002 -2.322460e+001 3.007687e+001
         vertex 3.260000e+002 -3.777204e+001 -4.156106e+000
         vertex 3.260000e+002 -3.497316e+001 -1.486198e+001
      endloop
   endfacet
   facet normal 1.000000e+000 0.000000e+000 0.000000e+000
      outer loop
         vertex 3.260000e+002 -3.497316e+001 -1.486198e+001
         vertex 3.260000e+002 -1.612935e+001 -3.440703e+001
         vertex 3.260000e+002 -2.322460e+001 3.007687e+001
      endloop
   endfacet
   facet normal 1.000000e+000 0.000000e+000 0.000000e+000
      outer loop
         vertex 3.260000e+002 3.736790e+001 6.902200e+000
         vertex 3.260000e+002 3.596471e+001 1.226945e+001
         vertex 3.260000e+002 2.735633e+001 2.637482e+001
      endloop
   endfacet
   facet normal 1.000000e+000 -0.000000e+000 0.000000e+000
      outer loop
         vertex 3.260000e+002 -2.322460e+001 3.007687e+001
         vertex 3.260000e+002 -3.090501e+001 2.211064e+001
         vertex 3.260000e+002 -3.736790e+001 6.902200e+000
      endloop
   endfacet
   facet normal 1.000000e+000 0.000000e+000 0.000000e+000
      outer loop
         vertex 3.260000e+002 2.735633e+001 2.637482e+001
         vertex 3.260000e+002 8.262346e+000 3.709089e+001
         vertex 3.260000e+002 3.736790e+001 6.902200e+000
      endloop
   endfacet
   facet normal 1.000000e+000 0.000000e+000 0.000000e+000
      outer loop
         vertex 3.260000e+002 -3.777204e+001 -4.156106e+000
         vertex 3.260000e+002 -2.322460e+001 3.007687e+001
         vertex 3.260000e+002 -3.736790e+001 6.902200e+000
      endloop
   endfacet
   facet normal 1.000000e+000 0.000000e+000 0.000000e+000
      outer loop
         vertex 3.260000e+002 -1.859788e+001 3.313788e+001
         vertex 3.260000e+002 2.773822e+000 3.789863e+001
         vertex 3.260000e+002 -2.773822e+000 3.789863e+001
      endloop
   endfacet
   facet normal 1.000000e+000 0.000000e+000 -0.000000e+000
      outer loop
         vertex 3.260000e+002 -1.612935e+001 -3.440703e+001
         vertex 3.260000e+002 0.000000e+000 -3.800000e+001
         vertex 3.260000e+002 5.532845e+000 -3.759505e+001
      endloop
   endfacet
   facet normal 1.000000e+000 0.000000e+000 0.000000e+000
      outer loop
         vertex 3.260000e+002 5.532845e+000 -3.759505e+001
         vertex 3.260000e+002 2.096717e+001 -3.169192e+001
         vertex 3.260000e+002 2.773822e+000 3.789863e+001
      endloop
   endfacet
   facet normal 1.000000e+000 0.000000e+000 0.000000e+000
      outer loop
         vertex 3.260000e+002 -1.612935e+001 -3.440703e+001
         vertex 3.260000e+002 2.773822e+000 3.789863e+001
         vertex 3.260000e+002 -1.859788e+001 3.313788e+001
      endloop
   endfacet
   facet normal 1.000000e+000 0.000000e+000 0.000000e+000
      outer loop
         vertex 3.260000e+002 1.612935e+001 -3.440703e+001
         vertex 3.260000e+002 2.096717e+001 -3.169192e+001
         vertex 3.260000e+002 5.532845e+000 -3.759505e+001
      endloop
   endfacet
   facet normal 1.000000e+000 -0.000000e+000 0.000000e+000
      outer loop
         vertex 3.260000e+002 2.773822e+000 3.789863e+001
         vertex 3.260000e+002 -1.612935e+001 -3.440703e+001
         vertex 3.260000e+002 5.532845e+000 -3.759505e+001
      endloop
   endfacet
endsolid
